<?xml version="1.0" encoding="utf-8"?>
<!-- Generator: Adobe Illustrator 22.1.0, SVG Export Plug-In . SVG Version: 6.00 Build 0)  -->
<svg version="1.1" id="Camada_7" xmlns="http://www.w3.org/2000/svg" xmlns:xlink="http://www.w3.org/1999/xlink" x="0px" y="0px"
	 viewBox="0 0 40.7 58.7" style="enable-background:new 0 0 40.7 58.7;" xml:space="preserve">
<style type="text/css">
	.st0{fill:#C2C1C1;}
	.st1{fill:#3C3C3B;}
	.st2{fill:#FFFFFF;}
	.st3{fill:#DADADA;}
	.st4{fill:#848484;}
	.st5{fill:#B6D7A0;}
	.st6{fill:#E83B4B;}
	.st7{fill:#8FB9D6;}
	.st8{fill:#F0F0F0;}
	.st9{fill:#F6F6F6;}
	.st10{fill:#15AADC;}
	.st11{fill:#9D9D9C;}
	.st12{fill:#D33138;}
	.st13{fill:#FBD11B;}
	.st14{fill:#B2B2B2;}
	.st15{fill:#FBE170;}
	.st16{fill:#C6C6C6;}
	.st17{fill:#706F6F;}
	.st18{fill:#3873B9;}
	.st19{fill:#142933;}
	.st20{fill:#627789;}
	.st21{fill:#344451;}
	.st22{fill:#030405;}
	.st23{fill:#9EC865;}
	.st24{fill:#E7E6E6;}
	.st25{fill:#2D63A1;}
	.st26{fill:#575756;}
	.st27{fill:none;stroke:#E83B4A;stroke-width:2;stroke-linecap:round;stroke-linejoin:round;stroke-miterlimit:10;}
	.st28{fill:#878787;}
	.st29{clip-path:url(#SVGID_2_);}
	.st30{fill:#DDE5E6;}
	.st31{fill:#C4D1D6;}
	.st32{fill:#E83B4A;}
	.st33{fill:#131B2F;}
	.st34{fill:#356087;}
	.st35{fill:#ADD2DB;}
	.st36{fill:#114D5B;}
	.st37{fill:#95C11F;}
	.st38{fill:#F2AD18;}
</style>
<g>
	<g>
		<g>
			<g>
				<g>
					<path class="st6" d="M38.4,2c0.1,0,0.1,0,0.2,0.1c0.1,0.1,0.2,0.2,0.2,0.4v28.5c0,0.1-0.1,0.3-0.2,0.4L2.7,56.7
						c-0.1,0.1-0.2,0.1-0.3,0.1c-0.1,0-0.1,0-0.2-0.1C2.1,56.6,2,56.5,2,56.3V27.8c0-0.1,0.1-0.3,0.2-0.4L38.1,2
						C38.2,2,38.3,2,38.4,2 M38.4,0c-0.5,0-1,0.2-1.4,0.4L1,25.8c-0.6,0.4-1,1.2-1,2v28.5c0,0.9,0.5,1.7,1.3,2.2
						c0.4,0.2,0.7,0.3,1.1,0.3c0.5,0,1-0.2,1.4-0.4l35.9-25.4c0.6-0.4,1-1.2,1-2V2.4c0-0.9-0.5-1.7-1.3-2.2C39.1,0.1,38.7,0,38.4,0
						L38.4,0z"/>
				</g>
			</g>
		</g>
		<g>
			<g>
				<g>
					<path class="st6" d="M2.4,58.2c-0.3,0-0.6-0.1-0.9-0.2c-0.6-0.3-1-1-1-1.7V27.8c0-0.6,0.3-1.2,0.8-1.5L37.3,0.9
						c0.6-0.4,1.3-0.4,2-0.1c0.6,0.3,1,1,1,1.7v28.5c0,0.6-0.3,1.2-0.8,1.5L3.5,57.9C3.2,58.1,2.8,58.2,2.4,58.2z M3.4,28.3v26.1
						l33.9-24V4.3L3.4,28.3z"/>
				</g>
			</g>
		</g>
	</g>
	<g>
		<g>
			<g>
				<g>
					<path class="st2" d="M2.4,56.9c-0.1,0-0.1,0-0.2-0.1C2.1,56.7,2,56.6,2,56.4V27.9c0-0.1,0.1-0.3,0.2-0.4L38.1,2.1
						c0.1-0.1,0.2-0.1,0.3-0.1c0.1,0,0.1,0,0.2,0.1c0.1,0.1,0.2,0.2,0.2,0.4V31c0,0.1-0.1,0.3-0.2,0.4L2.7,56.8
						C2.6,56.8,2.5,56.9,2.4,56.9z"/>
				</g>
			</g>
		</g>
		<g>
			<g>
				<g>
					<path class="st20" d="M38.4,2.5V31L2.4,56.4V27.9L38.4,2.5 M38.4,1.6c-0.2,0-0.4,0.1-0.5,0.2L1.9,27.2
						c-0.2,0.2-0.4,0.4-0.4,0.7v28.5c0,0.3,0.2,0.6,0.5,0.8c0.1,0.1,0.3,0.1,0.4,0.1c0.2,0,0.4-0.1,0.5-0.2l35.9-25.4
						c0.2-0.2,0.4-0.4,0.4-0.7V2.5c0-0.3-0.2-0.6-0.5-0.8C38.6,1.7,38.5,1.6,38.4,1.6L38.4,1.6z"/>
				</g>
			</g>
		</g>
	</g>
	<g>
		<g>
			<path class="st22" d="M12.4,32.2c0,0.5-0.2,1.1-0.7,1.7c-0.4,0.6-1,1.2-1.8,1.8c-0.8,0.6-1.4,1-1.9,1.1v-0.6
				C8.4,36,8.7,35.8,9,35.6c0.3-0.2,0.7-0.4,1-0.6c0.5-0.4,0.9-0.8,1.2-1.1c0.3-0.4,0.4-0.7,0.4-1c0-0.2,0-0.3-0.1-0.4
				c-0.1-0.1-0.3-0.1-0.5,0c-0.2,0.1-0.6,0.2-1,0.4c-0.6,0.3-1.1,0.4-1.4,0.3c-0.3-0.1-0.4-0.3-0.4-0.7c0-0.4,0.2-0.9,0.6-1.5
				c0.4-0.6,0.9-1.1,1.6-1.6c0.7-0.5,1.3-0.9,1.9-1.1L12,29.1c-0.6,0.2-1.1,0.5-1.7,0.9c-0.4,0.3-0.8,0.6-1,1
				C9.1,31.3,9,31.6,9,31.9c0,0.2,0,0.3,0.1,0.4c0.1,0.1,0.2,0.1,0.4,0c0.2,0,0.5-0.2,1-0.4c0.7-0.3,1.2-0.5,1.5-0.4
				C12.3,31.6,12.4,31.8,12.4,32.2z"/>
		</g>
		<g>
			<path class="st22" d="M15.9,31.2c-0.8,0.6-1.4,0.8-1.8,0.7c-0.4-0.1-0.7-0.4-0.7-1.1c0-0.7,0.2-1.4,0.6-2.1
				c0.4-0.7,1-1.3,1.7-1.8c0.6-0.5,1.2-0.7,1.5-0.6c0.4,0.1,0.6,0.4,0.6,1v0.4l-3.6,2.6c0,0.5,0.2,0.8,0.5,0.8
				c0.3,0.1,0.7-0.1,1.2-0.5c0.6-0.4,1.1-0.9,1.6-1.5v0.6c-0.3,0.3-0.5,0.6-0.8,0.8C16.5,30.7,16.2,31,15.9,31.2z M15.7,27.4
				c-0.4,0.3-0.7,0.7-1,1.1c-0.2,0.4-0.4,0.8-0.4,1.3l2.7-2c0-0.4-0.1-0.7-0.3-0.7C16.4,27,16.1,27.1,15.7,27.4z"/>
		</g>
		<g>
			<path class="st22" d="M22.7,26.2v-2.9c0-0.4-0.1-0.6-0.3-0.6c-0.2,0-0.5,0.1-0.9,0.4c-0.5,0.4-0.9,0.8-1.2,1.3
				c-0.3,0.4-0.4,0.9-0.4,1.5v2.3l-0.8,0.6v-4.4l0.6-0.5l0.1,0.5l0,0c0.2-0.3,0.4-0.7,0.7-1c0.3-0.3,0.6-0.6,1-0.9
				c0.6-0.5,1.1-0.7,1.4-0.7c0.3,0,0.5,0.3,0.5,0.9v2.9L22.7,26.2z"/>
		</g>
		<g>
			<path class="st22" d="M28.6,21.8v-2.9c0-0.4-0.1-0.6-0.3-0.6c-0.2,0-0.5,0.1-0.9,0.4c-0.5,0.4-0.9,0.8-1.2,1.3
				c-0.2,0.4-0.4,0.9-0.4,1.5v2.3l-0.8,0.6v-6.3l0.8-0.6v1.9c0,0.2,0,0.4,0,0.6l0,0c0.2-0.3,0.4-0.7,0.7-1c0.3-0.3,0.6-0.6,1-0.9
				c0.6-0.5,1.1-0.7,1.4-0.7c0.3,0,0.5,0.3,0.5,0.9v2.9L28.6,21.8z"/>
		</g>
		<g>
			<path class="st22" d="M34.2,17.7L34,17.2l0,0c-0.3,0.5-0.5,0.8-0.8,1.1c-0.3,0.3-0.6,0.6-1,0.9c-0.5,0.4-0.9,0.6-1.2,0.5
				c-0.3,0-0.4-0.2-0.4-0.6c0-0.9,0.8-2,2.5-3.3l0.9-0.7v-0.3c0-0.4-0.1-0.5-0.3-0.6c-0.2,0-0.5,0.1-0.8,0.4
				c-0.4,0.3-0.9,0.8-1.5,1.4l-0.2-0.3c0.3-0.3,0.5-0.6,0.8-0.9c0.3-0.3,0.6-0.6,0.9-0.8c0.6-0.5,1.1-0.7,1.4-0.7
				c0.3,0,0.4,0.3,0.4,0.8v3.1L34.2,17.7z M32.4,18.5c0.5-0.4,0.9-0.8,1.1-1.2c0.3-0.4,0.4-0.9,0.4-1.3v-0.4l-0.8,0.6
				c-0.6,0.5-1.1,0.9-1.3,1.2c-0.3,0.4-0.4,0.7-0.4,1c0,0.2,0.1,0.4,0.3,0.4C31.8,18.8,32.1,18.7,32.4,18.5z"/>
		</g>
		<g>
			<path class="st22" d="M11.7,39.4c0.7-0.5,1.2-0.6,1.5-0.5c0.4,0.1,0.5,0.6,0.5,1.3c0,0.7-0.2,1.4-0.6,2.1
				c-0.4,0.7-0.9,1.2-1.5,1.7c-0.7,0.5-1.2,0.7-1.5,0.5l-0.1,0.1l-0.2,0.7l-0.8,0.6v-6.2l1.1-0.8v1.5c0,0.1,0,0.3,0,0.5s0,0.4,0,0.4
				l0,0C10.5,40.5,11,39.9,11.7,39.4z M11.4,40.4c-0.4,0.3-0.8,0.7-1,1c-0.2,0.4-0.3,0.8-0.3,1.3v0.1c0,0.5,0.1,0.8,0.3,0.9
				c0.2,0.1,0.5,0,1-0.4c0.4-0.3,0.7-0.6,0.9-1c0.2-0.4,0.3-0.9,0.3-1.4C12.7,40,12.2,39.8,11.4,40.4z"/>
		</g>
		<g>
			<path class="st22" d="M20.8,34.3c0,1-0.3,1.9-0.9,2.9c-0.6,1-1.5,1.9-2.7,2.8l-1.9,1.4v-5.8l2.1-1.6c1.1-0.8,1.9-1.2,2.6-1.1
				C20.5,32.9,20.8,33.4,20.8,34.3z M19.6,35.2c0-1.4-0.8-1.5-2.3-0.4l-1,0.7v4.2l0.8-0.6C18.8,38,19.6,36.7,19.6,35.2z"/>
		</g>
		<g>
			<path class="st22" d="M24.5,28.3L24.3,30l1.8-1.8l0.1,0.8l-1.7,1.4l1.1,0.4l-0.9,1.1L24,31.2L23.3,33l-1,0.3l1.1-2l-1.7,1.1
				l0.2-1l1.8-0.9l-0.2-1.4L24.5,28.3z"/>
		</g>
		<g>
			<path class="st22" d="M29.4,25.1c0.7-0.5,1.2-0.7,1.6-0.8c0.4,0,0.6,0.2,0.6,0.6c0,0.6-0.4,1.4-1.3,2.4c0.5-0.2,0.9-0.2,1.2-0.1
				c0.2,0.1,0.3,0.3,0.3,0.6c0,0.5-0.2,1-0.6,1.6c-0.4,0.6-1,1.2-1.7,1.7c-0.7,0.5-1.3,0.8-1.7,0.9c-0.4,0-0.6-0.2-0.6-0.7
				c0-0.3,0.1-0.7,0.3-1.1c0.2-0.4,0.6-0.9,1.1-1.5c-0.4,0.1-0.7,0.1-0.9,0c-0.2-0.1-0.3-0.3-0.3-0.6c0-0.4,0.2-0.9,0.6-1.5
				C28.3,26,28.8,25.5,29.4,25.1z M28.1,30.5c0,0.3,0.1,0.4,0.3,0.4c0.2,0,0.5-0.2,0.9-0.4c0.4-0.3,0.7-0.6,0.9-0.9
				c0.2-0.3,0.3-0.6,0.3-0.9c0-0.2-0.1-0.3-0.3-0.4c-0.2,0-0.5,0-0.9,0.2l-0.1,0c-0.4,0.5-0.7,0.8-0.9,1.2
				C28.2,29.9,28.1,30.2,28.1,30.5z M29.4,25.8c-0.3,0.2-0.6,0.5-0.8,0.8c-0.2,0.3-0.3,0.5-0.3,0.8c0,0.1,0,0.2,0.1,0.3
				c0.1,0.1,0.2,0.1,0.3,0.1c0.1,0,0.4-0.1,0.7-0.2c0.4-0.4,0.6-0.8,0.8-1c0.2-0.3,0.2-0.5,0.2-0.7c0-0.2-0.1-0.3-0.3-0.3
				C30,25.4,29.7,25.6,29.4,25.8z"/>
		</g>
		<g>
			<path class="st22" d="M32.8,28.1c0-0.2,0.1-0.4,0.2-0.6c0.1-0.2,0.3-0.4,0.5-0.5c0.2-0.2,0.4-0.2,0.5-0.2c0.1,0,0.2,0.1,0.2,0.3
				s-0.1,0.4-0.2,0.6c-0.1,0.2-0.3,0.4-0.5,0.5c-0.2,0.2-0.4,0.2-0.5,0.2C32.9,28.4,32.8,28.3,32.8,28.1z M33.9,26l-0.8,0.6l-0.2-4
				l1.3-1L33.9,26z"/>
		</g>
	</g>
</g>
</svg>
