<?xml version="1.0" encoding="utf-8"?>
<!-- Generator: Adobe Illustrator 22.1.0, SVG Export Plug-In . SVG Version: 6.00 Build 0)  -->
<svg version="1.1" id="Camada_7" xmlns="http://www.w3.org/2000/svg" xmlns:xlink="http://www.w3.org/1999/xlink" x="0px" y="0px"
	 viewBox="0 0 154 124.9" style="enable-background:new 0 0 154 124.9;" xml:space="preserve">
<style type="text/css">
	.st0{fill:#C2C1C1;}
	.st1{fill:#3C3C3B;}
	.st2{fill:#FFFFFF;}
	.st3{fill:#DADADA;}
	.st4{fill:#848484;}
	.st5{fill:#B6D7A0;}
	.st6{fill:#E83B4B;}
	.st7{fill:#8FB9D6;}
	.st8{fill:#F0F0F0;}
	.st9{fill:#F6F6F6;}
	.st10{fill:#15AADC;}
	.st11{fill:#9D9D9C;}
	.st12{fill:#D33138;}
	.st13{fill:#FBD11B;}
	.st14{fill:#B2B2B2;}
	.st15{fill:#FBE170;}
	.st16{fill:#C6C6C6;}
	.st17{fill:#706F6F;}
	.st18{fill:#3873B9;}
	.st19{fill:#142933;}
	.st20{fill:#627789;}
	.st21{fill:#344451;}
	.st22{fill:#030405;}
	.st23{fill:#9EC865;}
	.st24{fill:#E7E6E6;}
	.st25{fill:#2D63A1;}
	.st26{fill:#575756;}
	.st27{fill:none;stroke:#E83B4A;stroke-width:2;stroke-linecap:round;stroke-linejoin:round;stroke-miterlimit:10;}
	.st28{fill:#878787;}
	.st29{clip-path:url(#SVGID_2_);}
	.st30{fill:#DDE5E6;}
	.st31{fill:#C4D1D6;}
	.st32{fill:#E83B4A;}
	.st33{fill:#131B2F;}
	.st34{fill:#356087;}
	.st35{fill:#ADD2DB;}
	.st36{fill:#114D5B;}
	.st37{fill:#95C11F;}
	.st38{fill:#F2AD18;}
</style>
<g>
	<g>
		<g>
			<g>
				<g>
					<g>
						<polygon class="st2" points="72.2,56.9 72.2,56.9 72.4,56.8 						"/>
					</g>
				</g>
				<g>
					<g>
						<polygon points="72.2,57.1 71.9,56.9 72.3,56.6 72.6,56.9 						"/>
					</g>
				</g>
			</g>
		</g>
		<g>
			<g>
				<g>
					<path class="st19" d="M116.5,107.1c-0.2-0.1-0.7-0.2-1.5-0.3c-6.6-3-21.2-5.1-38.1-5.1c-16.8,0-31.3,2.1-38,5
						c-0.8,0-1.2,0-1.2,0s-3.1,2.2-2.6,3.6c0,4.8,18.7,13.7,41.8,13.7s41.8-8.9,41.8-13.7C118.8,110.3,119.3,109,116.5,107.1z"/>
				</g>
			</g>
		</g>
		<g>
			<g>
				<g>
					<path class="st20" d="M117.3,108.8c0,4.8-18.1,12.5-40.4,12.5s-40.4-7.7-40.4-12.5s18.1-8.7,40.4-8.7S117.3,104,117.3,108.8z"
						/>
				</g>
			</g>
		</g>
		<g>
			<g>
				<g>
					<path class="st19" d="M146.7,95.6H6.1c-2.3,0-4.2-1.9-4.2-4.2V7.2c0-2.4,1.9-4.4,4.4-4.4h140.4c2.9,0,5.3,2.4,5.3,5.3v82.2
						C152,93.3,149.6,95.6,146.7,95.6z"/>
				</g>
			</g>
		</g>
		<g>
			<g>
				<g>
					<rect x="6.8" y="8" class="st2" width="140.2" height="79.2"/>
				</g>
			</g>
		</g>
		<g>
			<g>
				<g>
					<path class="st21" d="M63.5,95.6v0.9v13.5c0,1.7,6,4,13.5,4c7.4,0,13.5-2.3,13.5-4v-9.9v-4.5H63.5z"/>
				</g>
			</g>
		</g>
		<g>
			<g>
				<g>
					<path class="st22" d="M146.7,2.9c2.9,0,5.2,2.3,5.2,5.2v82.3c0,2.9-2.3,5.2-5.2,5.2H90.4v4.5v0.5c13.2,1,23.3,3.5,26.1,6.5
						c0,0,0,0,0,0c2.8,1.9,2.2,3.2,2.2,3.2c0,4.8-18.7,13.7-41.8,13.7s-41.8-8.9-41.8-13.7c-0.5-1.4,2.6-3.6,2.6-3.6
						c3.3-2.8,13-5.1,25.7-6.1v-4.1v-0.9H7.1c-2.9,0-5.2-2.3-5.2-5.2V8.1c0-2.9,2.3-5.2,5.2-5.2H146.7 M146.7,2.1H7.1
						c-3.3,0-6,2.7-6,6v82.3c0,3.3,2.7,6,6,6h55.5v0.1v3.4c-12.6,1-22.1,3.3-25.4,6.2c-0.9,0.6-3.4,2.6-2.9,4.4
						c0.2,3.4,6.7,7,12.8,9.3c5.1,1.9,15.8,5.1,29.9,5.1s24.7-3.2,29.9-5.1c6.1-2.3,12.6-5.9,12.8-9.3c0.1-0.5,0.2-2.1-2.5-4
						c-3-3.1-12.6-5.5-25.8-6.6v-3.4h55.5c3.3,0,6-2.7,6-6V8.1C152.8,4.8,150.1,2.1,146.7,2.1L146.7,2.1z"/>
				</g>
			</g>
		</g>
		<g>
			<g>
				<g>
					<rect x="71.3" y="89.3" class="st2" width="11.3" height="3.6"/>
				</g>
			</g>
		</g>
		<g>
			<g>
				<g>
					<path class="st2" d="M123.8,95.6h-4v-1.7h4V95.6z M120.2,95.2h3.2v-0.9h-3.2V95.2z"/>
				</g>
			</g>
		</g>
		<g>
			<g>
				<g>
					<rect x="126.1" y="93.9" class="st23" width="5.1" height="1.8"/>
				</g>
			</g>
		</g>
		<g>
			<g>
				<g>
					<rect x="132.7" y="93.9" class="st12" width="5.1" height="1.8"/>
				</g>
			</g>
		</g>
		<g>
			<rect x="6.8" y="7.6" class="st24" width="140.2" height="80.6"/>
		</g>
		<g>
			<rect x="7.3" y="13.3" class="st2" width="139.2" height="5.7"/>
		</g>
		<g>
			<rect x="6.8" y="7.6" class="st25" width="140.2" height="5.7"/>
		</g>
		<g>
			<path class="st16" d="M78.4,16.6H6.8v-3.9h71.6V16.6z M7.8,15.6h69.6v-1.9H7.8V15.6z"/>
		</g>
		<g>
			<path class="st16" d="M78.4,19.5H6.8v-3.9h71.6V19.5z M7.8,18.5h69.6v-1.9H7.8V18.5z"/>
		</g>
		<g>
			<path class="st16" d="M90.3,19.5H77.4v-6.7h12.9V19.5z M78.4,18.5h10.9v-4.7H78.4V18.5z"/>
		</g>
		<g>
			<path class="st16" d="M102.3,19.5H89.4v-6.7h12.9V19.5z M90.4,18.5h10.9v-4.7H90.4V18.5z"/>
		</g>
		<g>
			<path class="st16" d="M114.2,19.5h-12.9v-6.7h12.9V19.5z M102.3,18.5h10.9v-4.7h-10.9V18.5z"/>
		</g>
		<g>
			<path class="st16" d="M126.1,19.5h-12.9v-6.7h12.9V19.5z M114.2,18.5h10.9v-4.7h-10.9V18.5z"/>
		</g>
		<g>
			<path class="st16" d="M133.9,19.5h-8.9v-6.7h8.9V19.5z M126.1,18.5h6.9v-4.7h-6.9V18.5z"/>
		</g>
		<g>
			<path class="st16" d="M147.1,15.7h-14.6v-2.9h14.6V15.7z M133.5,14.7h12.6v-0.9h-12.6V14.7z"/>
		</g>
		<g>
			<path class="st16" d="M147.1,17.6h-14.2v-2.9h14.2V17.6z M133.9,16.6h12.2v-0.9h-12.2V16.6z"/>
		</g>
		<g>
			<path class="st16" d="M147.1,19.5h-14.6v-2.9h14.6V19.5z M133.5,18.5h12.6v-0.9h-12.6V18.5z"/>
		</g>
		<g>
			<rect x="17" y="13.3" class="st16" width="1" height="2.9"/>
		</g>
		<g>
			<rect x="10.4" y="16.1" class="st16" width="1" height="2.9"/>
		</g>
		<g>
			<rect x="13.8" y="16.1" class="st16" width="1" height="2.9"/>
		</g>
		<g>
			<rect x="17" y="16.1" class="st16" width="1" height="2.9"/>
		</g>
		<g>
			<rect x="20.4" y="16.1" class="st16" width="1" height="2.9"/>
		</g>
		<g>
			<rect x="33.5" y="13.3" class="st16" width="1" height="2.9"/>
		</g>
		<g>
			<rect x="37.5" y="13.3" class="st16" width="1" height="2.9"/>
		</g>
		<g>
			<rect x="42.1" y="13.3" class="st16" width="1" height="2.9"/>
		</g>
		<g>
			<rect x="45.7" y="13.3" class="st16" width="1" height="2.9"/>
		</g>
		<g>
			<rect x="60.7" y="13.3" class="st16" width="1" height="2.9"/>
		</g>
		<g>
			<rect x="65.1" y="13.3" class="st16" width="1" height="2.9"/>
		</g>
		<g>
			<rect x="69.1" y="13.3" class="st16" width="1" height="2.9"/>
		</g>
		<g>
			<rect x="42.5" y="24.3" class="st2" width="63.7" height="61.5"/>
		</g>
		<g>
			<rect x="47.6" y="29.2" class="st26" width="13.5" height="1"/>
		</g>
		<g>
			<rect x="47.6" y="67.6" class="st26" width="25.6" height="1"/>
		</g>
		<g>
			<rect x="47.6" y="34" class="st26" width="53.2" height="1"/>
		</g>
		<g>
			<rect x="47.6" y="36.4" class="st26" width="53.2" height="1"/>
		</g>
		<g>
			<rect x="47.6" y="38.8" class="st26" width="53.2" height="1"/>
		</g>
		<g>
			<rect x="47.6" y="41.1" class="st26" width="53.2" height="1"/>
		</g>
		<g>
			<rect x="47.6" y="43.5" class="st26" width="53.2" height="1"/>
		</g>
		<g>
			<rect x="47.6" y="71.5" class="st26" width="53.2" height="1"/>
		</g>
		<g>
			<rect x="47.6" y="73.8" class="st26" width="53.2" height="1"/>
		</g>
		<g>
			<rect x="47.6" y="76" class="st26" width="10.4" height="1"/>
		</g>
		<g>
			<rect x="58.2" y="76" class="st26" width="0.4" height="1"/>
		</g>
		<g>
			<rect x="47.6" y="45.9" class="st26" width="24.8" height="1"/>
		</g>
		<g>
			<rect x="76" y="55" class="st26" width="24.8" height="13.5"/>
		</g>
		<g>
			<path class="st26" d="M58.6,65.9c-4.8,0-8.7-3.7-8.7-8.2c0-4.5,3.9-8.2,8.7-8.2h0.5v7.7h8.2v0.5C67.3,62.2,63.4,65.9,58.6,65.9z
				 M58.1,50.4c-4,0.2-7.2,3.4-7.2,7.2c0,4,3.5,7.2,7.7,7.2c4.1,0,7.4-3,7.7-6.7h-8.2V50.4z"/>
		</g>
		<g>
			<path class="st26" d="M67.3,57.7h-8.8v-8.3l0.5,0c0.1,0,8-0.1,8.3,7.8L67.3,57.7z M59.5,56.7h6.7c-0.5-5.4-5.2-6.2-6.7-6.3V56.7z
				"/>
		</g>
		<g>
			<polygon class="st26" points="64.2,55 63.5,54.2 68.1,49.9 78.4,49.9 78.4,50.9 68.5,50.9 			"/>
		</g>
		<g>
			<rect x="7.3" y="85.7" class="st16" width="139.7" height="2.4"/>
		</g>
		<g>
			<rect x="145" y="19.3" class="st9" width="2" height="66.5"/>
		</g>
		<g>
			<rect x="145" y="19.3" class="st3" width="2" height="26.3"/>
		</g>
		<g>
			<rect x="9.2" y="9.5" class="st2" width="11.7" height="1.9"/>
		</g>
		<g>
			<rect x="22.3" y="9.5" class="st2" width="5.9" height="1.9"/>
		</g>
		<g>
			<rect x="29.4" y="9.5" class="st2" width="5.9" height="1.9"/>
		</g>
	</g>
	<path class="st27" d="M146.7,1.1H7.1c-3.3,0-6,2.7-6,6v82.3c0,3.3,2.7,6,6,6h55.5v0.1v3.4c-12.6,1-22.1,3.3-25.4,6.2
		c-0.9,0.6-3.4,2.6-2.9,4.4c0.2,3.4,6.7,7,12.8,9.3c5.1,1.9,15.8,5.1,29.9,5.1c14.1,0,24.7-3.2,29.9-5.1c6.1-2.3,12.6-5.9,12.8-9.3
		c0.1-0.5,0.2-2.1-2.5-4c-3-3.1-12.6-5.5-25.8-6.6v-3.4h55.5c3.3,0,6-2.7,6-6V7.1C152.8,3.8,150.1,1.1,146.7,1.1z M38.4,105.2"/>
</g>
</svg>
