<?xml version="1.0" encoding="utf-8"?>
<!-- Generator: Adobe Illustrator 22.1.0, SVG Export Plug-In . SVG Version: 6.00 Build 0)  -->
<svg version="1.1" id="Camada_7" xmlns="http://www.w3.org/2000/svg" xmlns:xlink="http://www.w3.org/1999/xlink" x="0px" y="0px"
	 viewBox="0 0 42.9 36.9" style="enable-background:new 0 0 42.9 36.9;" xml:space="preserve">
<style type="text/css">
	.st0{fill:#C2C1C1;}
	.st1{fill:#3C3C3B;}
	.st2{fill:#FFFFFF;}
	.st3{fill:#DADADA;}
	.st4{fill:#848484;}
	.st5{fill:#B6D7A0;}
	.st6{fill:#E83B4B;}
	.st7{fill:#8FB9D6;}
	.st8{fill:#F0F0F0;}
	.st9{fill:#F6F6F6;}
	.st10{fill:#15AADC;}
	.st11{fill:#9D9D9C;}
	.st12{fill:#D33138;}
	.st13{fill:#FBD11B;}
	.st14{fill:#B2B2B2;}
	.st15{fill:#FBE170;}
	.st16{fill:#C6C6C6;}
	.st17{fill:#706F6F;}
	.st18{fill:#3873B9;}
	.st19{fill:#142933;}
	.st20{fill:#627789;}
	.st21{fill:#344451;}
	.st22{fill:#030405;}
	.st23{fill:#9EC865;}
	.st24{fill:#E7E6E6;}
	.st25{fill:#2D63A1;}
	.st26{fill:#575756;}
	.st27{fill:none;stroke:#E83B4A;stroke-width:2;stroke-linecap:round;stroke-linejoin:round;stroke-miterlimit:10;}
	.st28{fill:#878787;}
	.st29{clip-path:url(#SVGID_2_);}
	.st30{fill:#DDE5E6;}
	.st31{fill:#C4D1D6;}
	.st32{fill:#E83B4A;}
	.st33{fill:#131B2F;}
	.st34{fill:#356087;}
	.st35{fill:#ADD2DB;}
	.st36{fill:#114D5B;}
	.st37{fill:#95C11F;}
	.st38{fill:#F2AD18;}
</style>
<g>
	<g>
		<g>
			<g>
				<g>
					<path class="st0" d="M40,5.5l0.2,2.6c0.1,1-0.1,2-0.4,2.9L33,30.8c-0.9,2.7-2.2,3.6-5.1,3.2L8,32c-2.1-0.2-4.1-0.5-4.8-2.5l0,0
						L40,5.5z"/>
				</g>
			</g>
			<g>
				<g>
					<path class="st1" d="M29,34.3c-0.3,0-0.7,0-1.1-0.1L8,32.2C5.9,32,3.8,31.8,3,29.6L3,29.4l0.1-0.1L40.2,5.2l0.2,2.9
						c0.1,1-0.1,2-0.4,3l-6.8,19.8C32.4,33.3,31.2,34.3,29,34.3z M3.5,29.6c0.7,1.8,2.6,2,4.6,2.2l19.9,2c2.8,0.3,4.1-0.5,4.9-3.1
						L39.6,11C39.9,10,40,9.1,40,8.1l-0.1-2.3L3.5,29.6z"/>
				</g>
			</g>
		</g>
		<g>
			<g>
				<g>
					<path class="st2" d="M15,4.1L3.1,27.7c-0.5,1,0.2,2.3,1.3,2.4l24.4,2.3c1.2,0.1,2.4-0.6,2.8-1.8l8.3-24.2
						c0.4-1.2,0.4-2.4-1.7-2.4l-21-1.2C16.2,2.8,15.4,3.3,15,4.1z"/>
				</g>
			</g>
			<g>
				<g>
					<path class="st1" d="M29,32.5c-0.1,0-0.2,0-0.3,0L4.4,30.3c-0.6-0.1-1.1-0.4-1.4-0.9c-0.3-0.5-0.3-1.1,0-1.7L14.9,4
						c0.4-0.8,1.2-1.3,2.2-1.3l21,1.2c0.9,0,1.5,0.3,1.8,0.7c0.3,0.4,0.3,1,0,1.9l-8.3,24.2C31.3,31.8,30.2,32.5,29,32.5z M15.1,4.1
						L3.2,27.8c-0.2,0.5-0.2,1,0,1.5c0.3,0.5,0.7,0.8,1.2,0.8l24.4,2.3c1.2,0.1,2.3-0.6,2.7-1.7l8.3-24.2c0.3-0.8,0.3-1.3,0-1.7
						c-0.3-0.4-0.8-0.6-1.7-0.6l-21-1.2C16.2,2.9,15.5,3.4,15.1,4.1L15.1,4.1z"/>
				</g>
			</g>
		</g>
		<g>
			<g>
				<g>
					<polygon class="st3" points="15.6,5.1 5.1,26.5 30.9,28.6 38.7,6.4 					"/>
				</g>
			</g>
			<g>
				<g>
					<path class="st1" d="M30.9,28.7C30.9,28.7,30.9,28.7,30.9,28.7L5.1,26.6c0,0-0.1,0-0.1-0.1c0,0,0-0.1,0-0.1L15.5,5
						c0,0,0.1-0.1,0.1-0.1l23.1,1.3c0,0,0.1,0,0.1,0c0,0,0,0.1,0,0.1L30.9,28.7C31,28.6,30.9,28.7,30.9,28.7z M5.3,26.4l25.5,2.1
						l7.7-21.9L15.7,5.2L5.3,26.4z"/>
				</g>
			</g>
		</g>
		<g>
			<g>
				<g>
					<polygon points="14.2,28.3 13.7,29.6 18.8,30.1 19.2,28.8 					"/>
				</g>
			</g>
		</g>
		<g>
			<g>
				<g>
					<path d="M28,4.8c0-0.2-0.2-0.5-0.4-0.5l-1.5-0.1c-0.3,0-0.6,0.1-0.8,0.4L28,4.8z"/>
				</g>
			</g>
		</g>
		<g>
			<g>
				<g>
					<polygon class="st2" points="16.4,6.3 14.5,10.4 25.6,11.1 27.2,7 					"/>
				</g>
			</g>
			<g>
				<g>
					<path class="st4" d="M25.7,11.2l-11.3-0.7l2-4.3l10.9,0.7L25.7,11.2z M14.7,10.3L25.6,11L27,7.1L16.5,6.4L14.7,10.3z"/>
				</g>
			</g>
		</g>
		<g>
			<g>
				<g>
					<polygon class="st5" points="21.4,11.8 20.1,14.3 33.6,15.2 34.6,12.7 					"/>
				</g>
			</g>
			<g>
				<g>
					<path class="st4" d="M33.7,15.3L20,14.4l1.4-2.7l13.3,0.9L33.7,15.3z M20.3,14.2l13.3,0.9l0.8-2.3l-12.9-0.9L20.3,14.2z"/>
				</g>
			</g>
		</g>
		<g>
			<g>
				<g>
					<polygon class="st2" points="12.3,15 10.2,18.9 24.5,19.7 26.2,15.8 					"/>
				</g>
			</g>
			<g>
				<g>
					<path class="st4" d="M24.6,19.8L10.1,19l2.1-4.1l14.1,0.9L24.6,19.8z M10.4,18.8l14.1,0.9l1.6-3.7l-13.7-0.9L10.4,18.8z"/>
				</g>
			</g>
		</g>
		<g>
			<g>
				<g>
					<polygon class="st5" points="18,20.5 15.3,25.9 29.6,27.1 31.6,21.4 					"/>
				</g>
			</g>
			<g>
				<g>
					<path class="st4" d="M29.6,27.2L15.1,26l2.8-5.6l13.8,0.9L29.6,27.2z M15.5,25.8l14,1.2l2-5.5l-13.4-0.9L15.5,25.8z"/>
				</g>
			</g>
		</g>
		<g>
			<g>
				<g>
					<path class="st1" d="M17,2.8L38,4c1.6,0.1,2,0.7,1.9,1.5l0,0l0.2,2.6c0.1,1-0.1,2-0.4,2.9l-6.8,19.8c-0.8,2.4-1.9,3.3-4,3.3
						c-0.3,0-0.7,0-1.1-0.1L7.9,32c-2.1-0.2-4.1-0.5-4.8-2.5l0,0l0,0C2.8,29,2.7,28.3,3,27.7L14.9,4.1C15.3,3.3,16.1,2.8,17,2.8
						 M17,2L17,2c-1.2,0-2.3,0.6-2.8,1.7L2.3,27.4c-0.4,0.8-0.4,1.7,0.1,2.4c0.9,2.5,3.3,2.8,5.4,3l19.9,2c0.4,0,0.8,0.1,1.2,0.1
						c2.5,0,3.9-1.2,4.8-3.8l6.8-19.7c0.3-1,0.5-2.1,0.4-3.2l-0.2-2.6l0,0c0-0.2,0-0.3,0-0.5l-0.1-0.9l-0.2,0.1
						c-0.1-0.1-0.1-0.2-0.2-0.2C39.8,3.5,39,3.2,38,3.2L17,2L17,2L17,2z"/>
				</g>
			</g>
		</g>
	</g>
	<g>
		<path class="st6" d="M17,2L17,2l21,1.2c1,0,1.8,0.3,2.2,0.8c0.1,0.1,0.1,0.2,0.2,0.2l0.1,0.1L40.7,5c0,0.2,0,0.3,0,0.5l0,0
			l0.2,2.6c0.1,1.1-0.1,2.1-0.4,3.2L33.7,31c-0.9,2.7-2.3,3.8-4.8,3.8c-0.4,0-0.8,0-1.2-0.1l-19.9-2c-2.1-0.2-4.5-0.5-5.4-3
			c-0.5-0.7-0.5-1.7-0.1-2.4L14.2,3.7C14.7,2.6,15.8,2,17,2L17,2 M2.8,28.2C2.8,28.2,2.8,28.2,2.8,28.2C2.8,28.2,2.8,28.2,2.8,28.2
			C2.8,28.2,2.8,28.2,2.8,28.2C2.8,28.2,2.8,28.2,2.8,28.2 M2.8,28.7C2.8,28.7,2.8,28.7,2.8,28.7C2.8,28.7,2.8,28.7,2.8,28.7
			C2.8,28.7,2.8,28.7,2.8,28.7C2.8,28.7,2.8,28.7,2.8,28.7 M17,0L17,0c-2,0-3.7,1.1-4.6,2.8L0.5,26.5c-0.7,1.3-0.6,2.9,0.1,4.2
			c1.4,3.5,4.8,3.9,7,4.1l19.9,2c0.5,0.1,0.9,0.1,1.4,0.1c3.4,0,5.5-1.7,6.7-5.2l6.8-19.7c0.4-1.3,0.6-2.6,0.5-4l-0.2-2.5
			c0-0.3,0-0.5-0.1-0.8c0-0.1,0-0.2-0.1-0.3l-0.2-0.6c0-0.1-0.1-0.3-0.2-0.4l-0.1-0.1c0,0,0,0,0,0C42,3,41.8,2.8,41.7,2.7
			c-0.8-0.9-2.1-1.4-3.6-1.5L17.1,0C17.1,0,17,0,17,0L17,0z"/>
	</g>
</g>
</svg>
