<?xml version="1.0" encoding="utf-8"?>
<!-- Generator: Adobe Illustrator 22.1.0, SVG Export Plug-In . SVG Version: 6.00 Build 0)  -->
<svg version="1.1" id="Camada_7" xmlns="http://www.w3.org/2000/svg" xmlns:xlink="http://www.w3.org/1999/xlink" x="0px" y="0px"
	 viewBox="0 0 50 41" style="enable-background:new 0 0 50 41;" xml:space="preserve">
<style type="text/css">
	.st0{fill:#C2C1C1;}
	.st1{fill:#3C3C3B;}
	.st2{fill:#FFFFFF;}
	.st3{fill:#DADADA;}
	.st4{fill:#848484;}
	.st5{fill:#B6D7A0;}
	.st6{fill:#E83B4B;}
	.st7{fill:#8FB9D6;}
	.st8{fill:#F0F0F0;}
	.st9{fill:#F6F6F6;}
	.st10{fill:#15AADC;}
	.st11{fill:#9D9D9C;}
	.st12{fill:#D33138;}
	.st13{fill:#FBD11B;}
	.st14{fill:#B2B2B2;}
	.st15{fill:#FBE170;}
	.st16{fill:#C6C6C6;}
	.st17{fill:#706F6F;}
	.st18{fill:#3873B9;}
	.st19{fill:#142933;}
	.st20{fill:#627789;}
	.st21{fill:#344451;}
	.st22{fill:#030405;}
	.st23{fill:#9EC865;}
	.st24{fill:#E7E6E6;}
	.st25{fill:#2D63A1;}
	.st26{fill:#575756;}
	.st27{fill:none;stroke:#E83B4A;stroke-width:2;stroke-linecap:round;stroke-linejoin:round;stroke-miterlimit:10;}
	.st28{fill:#878787;}
	.st29{clip-path:url(#SVGID_2_);}
	.st30{fill:#DDE5E6;}
	.st31{fill:#C4D1D6;}
	.st32{fill:#E83B4A;}
	.st33{fill:#131B2F;}
	.st34{fill:#356087;}
	.st35{fill:#ADD2DB;}
	.st36{fill:#114D5B;}
	.st37{fill:#95C11F;}
	.st38{fill:#F2AD18;}
</style>
<g>
	<g>
		<path class="st3" d="M3.1,13.6l-0.4,2.3c-0.2,1.1,0.2,2.2,1,3l20.8,18.6c0.9,0.8,2.2,0.9,3.2,0.3l17.2-10.3
			c0.9-0.5,1.5-1.4,1.6-2.4L47,23L3.1,13.6z"/>
	</g>
	<g>
		<path class="st36" d="M26.3,38.3c-0.7,0-1.3-0.2-1.9-0.7L3.6,19c-0.9-0.8-1.3-1.9-1.1-3.1L3,13.5l0.1,0l44,9.3l-0.4,2.3
			c-0.2,1-0.8,1.9-1.7,2.4L27.7,37.9C27.3,38.1,26.8,38.3,26.3,38.3z M3.1,13.8l-0.4,2.2c-0.2,1.1,0.2,2.2,1,2.9l20.8,18.6
			c0.9,0.8,2.1,0.9,3.1,0.3l17.2-10.3c0.8-0.5,1.4-1.3,1.6-2.3l0.4-2.1L3.1,13.8z"/>
	</g>
	<g>
		
			<rect x="24.6" y="36.3" transform="matrix(0.1016 -0.9948 0.9948 0.1016 -12.4678 58.9239)" class="st28" width="3.6" height="0.2"/>
	</g>
	<g>
		<path class="st9" d="M15.5,8.3L13.4,11L11,9.1c-0.6-0.5-0.7-1.5-0.2-2.1l0.3-0.4c0.5-0.6,1.5-0.7,2.1-0.2L15.5,8.3z"/>
	</g>
	<g>
		<path class="st28" d="M13.4,11.5l-2.5-2c-0.4-0.4-0.7-0.9-0.8-1.4c-0.1-0.6,0.1-1.1,0.5-1.6C11,6.1,11.5,5.8,12,5.7
			c0.6-0.1,1.1,0.1,1.6,0.5l2.5,2L13.4,11.5z M12.3,6.5c0,0-0.1,0-0.1,0c-0.4,0-0.7,0.2-0.9,0.5c-0.5,0.6-0.4,1.4,0.2,1.9l1.9,1.5
			L15,8.3l-1.9-1.5C12.8,6.6,12.6,6.5,12.3,6.5z"/>
	</g>
	<g>
		<path class="st9" d="M3.2,14.1c-0.3-0.3-0.2-0.7,0.1-0.9l18.9-10c1-0.6,2.3-0.4,3.1,0.4l21.5,18.7c0.4,0.4,0.4,1-0.1,1.3
			L27.8,34.3c-0.7,0.4-1.6,0.3-2.2-0.2L3.2,14.1z"/>
	</g>
	<g>
		<path class="st28" d="M26.9,34.7c-0.5,0-0.9-0.2-1.3-0.5l-22.5-20C3,14,2.9,13.8,2.9,13.6c0-0.2,0.2-0.4,0.3-0.5L22.1,3
			c1-0.6,2.3-0.4,3.2,0.4l21.5,18.7c0.2,0.2,0.3,0.5,0.3,0.8c0,0.3-0.2,0.6-0.5,0.7L27.9,34.4C27.6,34.6,27.2,34.7,26.9,34.7z
			 M3.2,14l22.5,20c0.6,0.5,1.4,0.6,2.1,0.2l18.8-10.8c0.2-0.1,0.3-0.3,0.4-0.5c0-0.2-0.1-0.5-0.2-0.6L25.2,3.6
			c-0.8-0.7-2-0.9-3-0.3l-18.9,10c-0.1,0.1-0.2,0.2-0.2,0.4C3.1,13.8,3.1,13.9,3.2,14L3.2,14z"/>
	</g>
	<g>
		<path class="st28" d="M23.4,2.8c0.7,0,1.3,0.2,1.8,0.7l21.5,18.7c0.3,0.3,0.4,0.7,0.1,1.1l-0.4,1.9c-0.2,1-0.8,1.9-1.6,2.4
			L27.6,37.8c-0.4,0.3-0.9,0.4-1.4,0.4c-0.7,0-1.3-0.2-1.8-0.7L3.6,18.9c-0.8-0.7-1.2-1.9-1-3L3,13.9c-0.1-0.2,0-0.5,0.3-0.7
			l18.9-10C22.6,2.9,23,2.8,23.4,2.8 M23.4,2c-0.6,0-1.2,0.1-1.7,0.4l-18.9,10c-0.5,0.3-0.8,0.8-0.7,1.4l-0.3,1.9
			c-0.2,1.4,0.2,2.8,1.3,3.7l20.8,18.6c0.6,0.6,1.5,0.9,2.4,0.9c0.6,0,1.3-0.2,1.8-0.5l17.2-10.3c1.1-0.6,1.8-1.7,2-2.9l0.3-1.8
			c0.3-0.7,0.2-1.5-0.4-1.9L25.8,2.9C25.2,2.3,24.3,2,23.4,2L23.4,2z"/>
	</g>
	<g>
		
			<ellipse transform="matrix(0.9995 -3.250843e-02 3.250843e-02 0.9995 -0.1559 0.7615)" class="st37" cx="23.3" cy="5.2" rx="1.2" ry="0.6"/>
	</g>
	<g>
		<polygon class="st38" points="12.9,21.6 19.2,27.2 38.6,15.8 33,10.9 		"/>
	</g>
	<g>
		<path class="st6" d="M23.7,2c0.9,0,1.7,0.3,2.3,0.9l21.5,18.7c0.6,0.5,0.7,1.3,0.4,1.9l-0.3,1.8c-0.2,1.2-1,2.3-2,2.9L28.3,38.5
			c-0.5,0.3-1.2,0.5-1.8,0.5c-0.9,0-1.7-0.3-2.4-0.9L3.3,19.5c-1-0.9-1.5-2.4-1.3-3.7l0.3-1.9c-0.1-0.6,0.2-1.1,0.7-1.4l7.4-3.9
			c0-0.1-0.1-0.3-0.1-0.5c-0.1-0.6,0.1-1.1,0.5-1.6c0.4-0.4,0.9-0.7,1.4-0.8c0.1,0,0.2,0,0.2,0c0.5,0,0.9,0.2,1.3,0.5l0.4,0.3
			L22,2.4C22.5,2.1,23.1,2,23.7,2 M23.7,0c-0.9,0-1.8,0.2-2.7,0.7l-6.6,3.5c-0.6-0.3-1.2-0.5-1.9-0.5c-0.1,0-0.3,0-0.5,0
			C11,3.9,10,4.4,9.3,5.3C8.8,5.9,8.5,6.6,8.4,7.4l-6.2,3.3c-1.1,0.6-1.8,1.8-1.8,3.1l-0.3,1.6c-0.4,2,0.4,4.2,1.9,5.6l20.8,18.6
			c1,0.9,2.3,1.4,3.7,1.4c1,0,2-0.3,2.8-0.8l17.2-10.3c1.6-0.9,2.6-2.5,3-4.3l0.3-1.6c0.6-1.4,0.2-3-1-4L27.3,1.4
			C26.4,0.5,25.1,0,23.7,0L23.7,0z"/>
	</g>
</g>
</svg>
