<?xml version="1.0" encoding="utf-8"?>
<!-- Generator: Adobe Illustrator 22.1.0, SVG Export Plug-In . SVG Version: 6.00 Build 0)  -->
<svg version="1.1" id="Camada_7" xmlns="http://www.w3.org/2000/svg" xmlns:xlink="http://www.w3.org/1999/xlink" x="0px" y="0px"
	 viewBox="0 0 100.6 134.8" style="enable-background:new 0 0 100.6 134.8;" xml:space="preserve">
<style type="text/css">
	.st0{fill:#8DB9D6;}
	.st1{fill:#3C3C3B;}
	.st2{fill:#EFEFEF;}
	.st3{fill:#F5F5F5;}
	.st4{fill:#15AADC;}
	.st5{fill:#9C9B9B;}
	.st6{fill:#D33138;}
	.st7{fill:#1D1D1B;}
	.st8{fill:#FFFFFF;}
	.st9{fill:#F6D52E;}
	.st10{fill:#C0BBBE;}
	.st11{fill:#E2E2E3;}
	.st12{fill:#F6E381;}
	.st13{fill:#E0DCDE;}
	.st14{fill:#449544;}
	.st15{fill:#BAB3B6;}
	.st16{fill:#AB9EA4;}
	.st17{fill:#E83B4B;}
</style>
<g>
	<g>
		<g>
			<g>
				<g>
					<path class="st0" d="M92.1,69.8l-80.5,57.4c-1.3,0.9-2.4,0.1-2.4-1.9l0-56.9c0-1.9,1.1-4.3,2.4-5.3l79.9-59
						c1.3-1,2.4-0.1,2.4,2l0.5,58.2C94.5,66.5,93.4,68.9,92.1,69.8z"/>
				</g>
				<g>
					<path class="st1" d="M92.1,69.9l-80.5,57.4c-1.4,0.9-2.5,0.1-2.5-1.9V68.5c0-2,1.1-4.4,2.5-5.5L91.6,4c1.4-1,2.5-0.1,2.5,2.1
						l0.5,58.2C94.6,66.5,93.5,69,92.1,69.9z M11.6,63.3c-1.3,1-2.3,3.2-2.3,5.1l0,56.9c0,1.8,1,2.7,2.3,1.8l80.5-57.4
						c1.3-0.9,2.3-3.2,2.3-5.3L93.9,6.2c0-2-1.1-2.9-2.3-2L11.6,63.3z"/>
				</g>
			</g>
			<g>
				<g>
					<polygon class="st2" points="93.2,67 10.6,125.9 10.6,71.2 92.7,11.4 					"/>
				</g>
				<g>
					<path class="st1" d="M93.2,67l-82.7,59.1l0-54.9l82.2-60L93.2,67z M10.7,125.7l82.4-58.9l-0.5-55.3L10.7,71.3L10.7,125.7z"/>
				</g>
			</g>
			<g>
				<polygon class="st3" points="72.9,77.2 57.8,87.5 57.8,81.4 72.8,71 				"/>
				<path class="st4" d="M73,77.3L57.8,87.7l0-6.4l15.2-10.5L73,77.3z M57.9,87.3l14.9-10.2l0-6L57.9,81.5L57.9,87.3z"/>
			</g>
			<g>
				<polygon class="st3" points="90.3,65.3 75.3,75.6 75.2,69.3 90.3,58.9 				"/>
				<path class="st5" d="M90.4,65.3L75.2,75.7l0-6.5l15.2-10.5L90.4,65.3z M75.4,75.4l14.9-10.2l-0.1-6.1L75.3,69.4L75.4,75.4z"/>
			</g>
			<g>
				<path class="st6" d="M90.3,11.1l-6.8,5.1c-0.4,0.3-0.7,0-0.7-0.6l0-4.6l8.2-6.2l0,4.6C91,10,90.7,10.8,90.3,11.1z"/>
			</g>
			<g>
				<path class="st7" d="M14.3,79.5l-0.2,0.2l0-2.6l-0.6,0.5l0-0.3l1.5-1.1l0,0.3l-0.6,0.5L14.3,79.5z"/>
				<path class="st7" d="M15.8,78.5c-0.2,0.2-0.4,0.2-0.5,0.1c-0.1-0.1-0.2-0.3-0.2-0.7c0-0.3,0.1-0.7,0.2-1
					c0.1-0.3,0.3-0.5,0.5-0.7c0.2-0.1,0.3-0.2,0.4-0.1c0.1,0.1,0.2,0.3,0.2,0.6l0,0.2l-1,0.7c0,0.2,0,0.4,0.1,0.5
					c0.1,0.1,0.2,0.1,0.3-0.1c0.2-0.1,0.3-0.3,0.5-0.5l0,0.3c-0.1,0.1-0.2,0.2-0.2,0.3C16,78.3,15.9,78.4,15.8,78.5z M15.7,76.5
					c-0.1,0.1-0.2,0.2-0.3,0.4c-0.1,0.2-0.1,0.4-0.1,0.6l0.8-0.6c0-0.2,0-0.3-0.1-0.4C15.9,76.5,15.9,76.5,15.7,76.5z"/>
				<path class="st7" d="M18.6,76.4l0-1.4c0-0.2,0-0.3-0.1-0.3c-0.1,0-0.1,0-0.2,0c-0.1,0.1-0.2,0.2-0.3,0.4
					c-0.1,0.2-0.1,0.4-0.1,0.6l0,1.2l-0.2,0.2l0-1.4c0-0.2,0-0.3-0.1-0.3c-0.1,0-0.1,0-0.2,0c-0.1,0.1-0.2,0.2-0.3,0.4
					c-0.1,0.2-0.1,0.4-0.1,0.7l0,1.1l-0.2,0.2l0-2.2l0.2-0.1l0,0.3l0,0c0-0.1,0.1-0.3,0.2-0.4c0.1-0.1,0.2-0.2,0.3-0.3
					c0.2-0.2,0.4-0.2,0.5,0l0,0c0-0.1,0.1-0.3,0.2-0.4s0.2-0.2,0.3-0.3c0.2-0.1,0.3-0.2,0.4-0.1c0.1,0.1,0.1,0.2,0.1,0.5l0,1.4
					L18.6,76.4z"/>
				<path class="st7" d="M20.6,75c-0.2,0.2-0.4,0.2-0.5,0.1c-0.1-0.1-0.2-0.3-0.2-0.7c0-0.4,0.1-0.7,0.2-1c0.1-0.3,0.3-0.5,0.5-0.7
					c0.1-0.1,0.1-0.1,0.2-0.1c0.1,0,0.1,0,0.2,0l-0.1,0.3c0,0-0.1,0-0.2,0c-0.1,0-0.1,0.1-0.2,0.1c-0.3,0.2-0.4,0.6-0.4,1.2
					c0,0.3,0,0.4,0.1,0.5c0.1,0.1,0.2,0.1,0.3,0c0.1-0.1,0.2-0.2,0.4-0.4l0,0.3C20.8,74.7,20.7,74.9,20.6,75z"/>
				<path class="st7" d="M21.9,74c-0.2,0.2-0.4,0.2-0.5,0.1c-0.1-0.1-0.2-0.3-0.2-0.7c0-0.3,0.1-0.7,0.2-1c0.1-0.3,0.3-0.5,0.5-0.7
					c0.2-0.1,0.3-0.2,0.4-0.1c0.1,0.1,0.2,0.3,0.2,0.6l0,0.2l-1,0.7c0,0.3,0,0.4,0.1,0.5c0.1,0.1,0.2,0.1,0.3-0.1
					c0.2-0.1,0.3-0.3,0.5-0.5l0,0.3c-0.1,0.1-0.2,0.2-0.2,0.3C22.1,73.8,22,73.9,21.9,74z M21.9,72.1c-0.1,0.1-0.2,0.2-0.3,0.4
					c-0.1,0.2-0.1,0.4-0.1,0.6l0.8-0.6c0-0.2,0-0.3-0.1-0.4C22.1,72,22,72,21.9,72.1z"/>
				<path class="st7" d="M23.5,70.6c0.1,0,0.1-0.1,0.2-0.1l0,0.3c-0.1,0-0.1,0.1-0.2,0.1c-0.1,0.1-0.2,0.2-0.3,0.4
					c-0.1,0.2-0.1,0.4-0.1,0.6l0,1.2l-0.2,0.2l0-2.2L23,71l0,0.4l0,0c0.1-0.2,0.1-0.3,0.2-0.5C23.3,70.7,23.4,70.6,23.5,70.6z"/>
				<path class="st7" d="M24.4,71.9c0,0,0.1-0.1,0.1-0.1c0,0,0.1-0.1,0.1-0.1l0,0.3c0,0-0.1,0.1-0.1,0.1c0,0-0.1,0.1-0.1,0.1
					c-0.3,0.2-0.4,0.1-0.4-0.4l0-1.3l-0.2,0.2l0-0.2l0.2-0.3l0.1-0.5l0.1-0.1l0,0.5l0.4-0.3l0,0.3l-0.4,0.3l0,1.3
					c0,0.1,0,0.2,0.1,0.3C24.3,71.9,24.4,71.9,24.4,71.9z"/>
				<path class="st7" d="M25.5,71.3c-0.2,0.2-0.4,0.2-0.5,0.1c-0.1-0.1-0.2-0.3-0.2-0.7c0-0.4,0.1-0.7,0.2-1
					c0.1-0.3,0.3-0.5,0.5-0.7c0.2-0.1,0.3-0.2,0.4-0.1c0.1,0.1,0.2,0.3,0.2,0.6l0,0.2l-1,0.7c0,0.3,0,0.4,0.1,0.5
					c0.1,0.1,0.2,0.1,0.3-0.1c0.2-0.1,0.3-0.3,0.5-0.5l0,0.3c-0.1,0.1-0.2,0.2-0.2,0.3C25.7,71.2,25.6,71.3,25.5,71.3z M25.5,69.4
					c-0.1,0.1-0.2,0.2-0.3,0.4c-0.1,0.2-0.1,0.4-0.1,0.6l0.8-0.6c0-0.2,0-0.3-0.1-0.4C25.7,69.3,25.6,69.3,25.5,69.4z"/>
				<path class="st7" d="M27.4,69.9l-1.1,0.8l0-0.2l0.8-2.3l-0.8,0.6l0-0.3l1-0.7l0,0.3l-0.8,2.3l0.8-0.6L27.4,69.9z"/>
				<path class="st7" d="M28.6,69l0-0.3l0,0c-0.1,0.2-0.1,0.3-0.2,0.4c-0.1,0.1-0.2,0.2-0.3,0.3c-0.1,0.1-0.3,0.1-0.3,0.1
					c-0.1-0.1-0.1-0.2-0.1-0.4c0-0.4,0.2-0.8,0.7-1.2l0.2-0.2l0-0.1c0-0.2,0-0.3-0.1-0.3c0,0-0.1,0-0.2,0.1
					c-0.1,0.1-0.3,0.2-0.4,0.5l-0.1-0.2c0.1-0.1,0.2-0.2,0.2-0.3c0.1-0.1,0.2-0.2,0.3-0.2c0.2-0.1,0.3-0.2,0.4-0.1
					c0.1,0.1,0.1,0.2,0.1,0.5l0,1.5L28.6,69z M28.1,69.2c0.1-0.1,0.2-0.2,0.3-0.4c0.1-0.2,0.1-0.4,0.1-0.6l0-0.2l-0.2,0.2
					c-0.2,0.1-0.3,0.3-0.4,0.4c-0.1,0.1-0.1,0.3-0.1,0.4c0,0.1,0,0.2,0.1,0.2C28,69.2,28.1,69.2,28.1,69.2z"/>
				<path class="st7" d="M31,67L31,67c-0.1,0.3-0.3,0.5-0.5,0.7c-0.2,0.1-0.3,0.2-0.4,0c-0.1-0.1-0.2-0.4-0.2-0.7s0.1-0.7,0.2-1
					c0.1-0.3,0.3-0.5,0.4-0.6c0.2-0.1,0.4-0.2,0.5,0l0,0l0-0.2l0-0.2l0-0.9l0.2-0.2l0,3.1L31,67.3L31,67z M30.5,67.4
					c0.2-0.1,0.3-0.3,0.3-0.4c0.1-0.2,0.1-0.4,0.1-0.7l0-0.1c0-0.3,0-0.5-0.1-0.6c-0.1-0.1-0.2-0.1-0.3,0c-0.1,0.1-0.2,0.2-0.3,0.4
					c-0.1,0.2-0.1,0.4-0.1,0.7c0,0.3,0,0.5,0.1,0.6C30.3,67.5,30.4,67.5,30.5,67.4z"/>
				<path class="st7" d="M32.3,66.4c-0.2,0.2-0.4,0.2-0.5,0.1c-0.1-0.1-0.2-0.3-0.2-0.7c0-0.4,0.1-0.7,0.2-1
					c0.1-0.3,0.3-0.5,0.5-0.7c0.2-0.1,0.3-0.2,0.4,0c0.1,0.1,0.2,0.3,0.2,0.6l0,0.2l-1,0.7c0,0.3,0,0.4,0.1,0.5
					c0.1,0.1,0.2,0.1,0.3-0.1c0.2-0.1,0.3-0.3,0.5-0.5l0,0.3c-0.1,0.1-0.2,0.2-0.2,0.3C32.5,66.3,32.4,66.3,32.3,66.4z M32.2,64.4
					c-0.1,0.1-0.2,0.2-0.3,0.4c-0.1,0.2-0.1,0.4-0.1,0.6l0.8-0.6c0-0.2,0-0.3-0.1-0.4C32.4,64.3,32.3,64.4,32.2,64.4z"/>
				<path class="st7" d="M34.4,64.8c-0.2,0.1-0.3,0.1-0.4,0c-0.1-0.1-0.2-0.4-0.2-0.7c0-0.4,0.1-0.7,0.2-1c0.1-0.3,0.3-0.5,0.4-0.6
					c0.2-0.1,0.4-0.1,0.5,0l0,0l0-0.3l0.2-0.1l0,3.2l-0.2,0.2l0-0.9c0-0.1,0-0.3,0-0.4l0,0C34.8,64.4,34.6,64.7,34.4,64.8z
					 M34.5,64.5c0.1-0.1,0.3-0.2,0.3-0.4c0.1-0.2,0.1-0.4,0.1-0.7l0-0.1c0-0.3,0-0.5-0.1-0.6c-0.1-0.1-0.2-0.1-0.3,0
					c-0.1,0.1-0.2,0.2-0.3,0.4c-0.1,0.2-0.1,0.4-0.1,0.7s0,0.5,0.1,0.6C34.2,64.6,34.3,64.6,34.5,64.5z"/>
				<path class="st7" d="M35.8,61.6l0,1.4c0,0.2,0,0.3,0.1,0.3c0.1,0,0.1,0,0.3-0.1c0.2-0.1,0.3-0.3,0.3-0.4
					c0.1-0.2,0.1-0.4,0.1-0.7l0-1.2l0.2-0.2l0,2.2l-0.2,0.1l0-0.3l0,0c0,0.1-0.1,0.3-0.2,0.4c-0.1,0.1-0.2,0.2-0.3,0.3
					c-0.2,0.1-0.3,0.2-0.4,0.1c-0.1-0.1-0.1-0.2-0.1-0.5l0-1.4L35.8,61.6z"/>
				<path class="st7" d="M37.9,62.3c-0.2,0.2-0.4,0.2-0.5,0.1c-0.1-0.1-0.2-0.3-0.2-0.7c0-0.4,0.1-0.7,0.2-1
					c0.1-0.3,0.3-0.5,0.5-0.7c0.2-0.1,0.3-0.2,0.4,0c0.1,0.1,0.2,0.3,0.2,0.6l0,0.2l-1,0.7c0,0.3,0,0.4,0.1,0.5
					c0.1,0.1,0.2,0.1,0.3-0.1c0.2-0.1,0.3-0.3,0.5-0.5l0,0.3c-0.1,0.1-0.2,0.2-0.2,0.3C38.1,62.1,38,62.2,37.9,62.3z M37.8,60.3
					c-0.1,0.1-0.2,0.2-0.3,0.4c-0.1,0.2-0.1,0.4-0.1,0.6l0.8-0.6c0-0.2,0-0.4-0.1-0.4C38,60.2,38,60.2,37.8,60.3z"/>
				<path class="st7" d="M40.5,60L40.5,60c-0.1,0.3-0.3,0.5-0.5,0.7c-0.2,0.1-0.3,0.2-0.4,0c-0.1-0.1-0.2-0.4-0.2-0.7
					c0-0.4,0.1-0.7,0.2-1c0.1-0.3,0.3-0.5,0.4-0.6c0.2-0.1,0.4-0.1,0.5,0l0,0l0-0.2l0-0.2l0-0.9l0.2-0.2l0,3.2l-0.2,0.1L40.5,60z
					 M40.1,60.4c0.2-0.1,0.3-0.3,0.3-0.4c0.1-0.2,0.1-0.4,0.1-0.7l0-0.1c0-0.3,0-0.5-0.1-0.6c-0.1-0.1-0.2-0.1-0.3,0
					c-0.1,0.1-0.2,0.2-0.3,0.4c-0.1,0.2-0.1,0.4-0.1,0.7c0,0.3,0,0.5,0.1,0.6C39.9,60.5,40,60.5,40.1,60.4z"/>
				<path class="st7" d="M41.8,59.4c-0.2,0.2-0.4,0.2-0.5,0.1c-0.1-0.1-0.2-0.3-0.2-0.7c0-0.4,0.1-0.7,0.2-1
					c0.1-0.3,0.3-0.5,0.5-0.7c0.2-0.1,0.3-0.2,0.4,0c0.1,0.1,0.2,0.3,0.2,0.6l0,0.2l-1,0.7c0,0.3,0,0.4,0.1,0.5
					c0.1,0.1,0.2,0.1,0.3-0.1c0.2-0.1,0.3-0.3,0.5-0.5l0,0.3c-0.1,0.1-0.2,0.2-0.2,0.3C42,59.3,41.9,59.3,41.8,59.4z M41.8,57.4
					c-0.1,0.1-0.2,0.2-0.3,0.4c-0.1,0.2-0.1,0.4-0.1,0.6l0.8-0.6c0-0.2,0-0.4-0.1-0.4C42,57.3,41.9,57.3,41.8,57.4z"/>
				<path class="st7" d="M43.7,57.4c0,0.2,0,0.4-0.2,0.6c-0.1,0.2-0.2,0.3-0.4,0.5c-0.2,0.1-0.3,0.2-0.5,0.2l0-0.3
					c0.1,0,0.1,0,0.2,0c0.1,0,0.2-0.1,0.2-0.1c0.1-0.1,0.2-0.2,0.3-0.3c0.1-0.1,0.1-0.2,0.1-0.3c0-0.1,0-0.1-0.1-0.2
					c0,0-0.1,0-0.3,0c-0.1,0-0.2,0-0.3,0c-0.1,0-0.1,0-0.1-0.1c0-0.1,0-0.1,0-0.2c0-0.2,0-0.4,0.1-0.5c0.1-0.2,0.2-0.3,0.4-0.5
					c0.2-0.1,0.3-0.2,0.5-0.2l-0.1,0.3c-0.1,0-0.3,0.1-0.4,0.2c-0.1,0.1-0.2,0.2-0.2,0.3c-0.1,0.1-0.1,0.2-0.1,0.3
					c0,0.1,0,0.1,0,0.1c0,0,0.1,0,0.1,0c0,0,0.1,0,0.3,0c0.2,0,0.3,0,0.4,0C43.7,57.1,43.7,57.2,43.7,57.4z"/>
				<path class="st7" d="M44.7,57.3c-0.2,0.2-0.4,0.2-0.5,0.1C44,57.3,44,57.1,44,56.7c0-0.4,0.1-0.7,0.2-1c0.1-0.3,0.3-0.5,0.5-0.7
					c0.2-0.1,0.3-0.2,0.4,0c0.1,0.1,0.2,0.3,0.2,0.6l0,0.2l-1,0.7c0,0.3,0,0.4,0.1,0.5c0.1,0.1,0.2,0.1,0.3-0.1
					c0.2-0.1,0.3-0.3,0.5-0.5l0,0.3c-0.1,0.1-0.2,0.2-0.2,0.3C44.9,57.2,44.8,57.2,44.7,57.3z M44.6,55.3c-0.1,0.1-0.2,0.2-0.3,0.4
					c-0.1,0.2-0.1,0.4-0.1,0.6l0.8-0.6c0-0.2,0-0.4-0.1-0.4C44.8,55.2,44.7,55.2,44.6,55.3z"/>
				<path class="st7" d="M45.4,57.7c-0.1,0.1-0.2,0.1-0.2,0.1l0-0.3c0.1,0,0.1,0,0.2-0.1c0.1-0.1,0.1-0.1,0.2-0.2c0-0.1,0-0.2,0-0.3
					l0-2.6l0.2-0.2l0,2.6C45.8,57.2,45.7,57.5,45.4,57.7z M45.6,53.8c0-0.1,0-0.1,0-0.2c0-0.1,0.1-0.1,0.1-0.1c0,0,0.1,0,0.1,0
					c0,0,0,0.1,0,0.1c0,0.1,0,0.1,0,0.2c0,0.1-0.1,0.1-0.1,0.1c0,0-0.1,0-0.1,0C45.6,53.9,45.6,53.9,45.6,53.8z"/>
				<path class="st7" d="M47.2,55.4l0-0.3l0,0c-0.1,0.2-0.1,0.3-0.2,0.4c-0.1,0.1-0.2,0.2-0.3,0.3C46.5,56,46.4,56,46.3,56
					c-0.1-0.1-0.1-0.2-0.1-0.4c0-0.5,0.2-0.9,0.7-1.2l0.2-0.2l0-0.1c0-0.2,0-0.3-0.1-0.3c-0.1,0-0.1,0-0.2,0
					c-0.1,0.1-0.3,0.2-0.4,0.5L46.3,54c0.1-0.1,0.2-0.2,0.2-0.3c0.1-0.1,0.2-0.2,0.3-0.2c0.2-0.1,0.3-0.2,0.4-0.1
					c0.1,0.1,0.1,0.2,0.1,0.5l0,1.5L47.2,55.4z M46.7,55.6c0.1-0.1,0.2-0.2,0.3-0.4c0.1-0.2,0.1-0.4,0.1-0.6l0-0.2l-0.2,0.2
					c-0.2,0.1-0.3,0.3-0.4,0.4c-0.1,0.1-0.1,0.3-0.1,0.4c0,0.1,0,0.2,0.1,0.2C46.5,55.6,46.6,55.6,46.7,55.6z"/>
				<path class="st7" d="M50.4,53.1l0-1.5c0-0.2,0-0.3-0.1-0.3c-0.1-0.1-0.1,0-0.2,0c-0.1,0.1-0.2,0.2-0.3,0.4
					c-0.1,0.2-0.1,0.4-0.1,0.6l0,1.3l-0.2,0.2l0-1.5c0-0.2,0-0.3-0.1-0.3c-0.1-0.1-0.1,0-0.2,0c-0.1,0.1-0.2,0.2-0.3,0.4
					c-0.1,0.2-0.1,0.4-0.1,0.7l0,1.2l-0.2,0.2l0-2.2l0.2-0.1l0,0.3l0,0c0-0.1,0.1-0.3,0.2-0.4c0.1-0.1,0.2-0.2,0.3-0.3
					c0.2-0.2,0.4-0.2,0.5,0l0,0c0-0.1,0.1-0.3,0.2-0.4c0.1-0.1,0.2-0.2,0.3-0.3c0.2-0.1,0.3-0.1,0.4-0.1c0.1,0.1,0.1,0.2,0.1,0.5
					l0,1.5L50.4,53.1z"/>
				<path class="st7" d="M52.4,50.5c0,0.4-0.1,0.7-0.2,1c-0.1,0.3-0.3,0.5-0.5,0.7c-0.1,0.1-0.2,0.1-0.4,0.1c-0.1,0-0.2-0.1-0.2-0.2
					C51,51.9,51,51.8,51,51.5c0-0.4,0.1-0.7,0.2-1c0.1-0.3,0.3-0.5,0.5-0.7c0.2-0.2,0.4-0.2,0.5,0C52.3,49.9,52.4,50.2,52.4,50.5z
					 M51.2,51.4c0,0.3,0,0.5,0.1,0.6c0.1,0.1,0.2,0.1,0.3,0c0.1-0.1,0.3-0.3,0.3-0.5c0.1-0.2,0.1-0.5,0.1-0.7c0-0.3,0-0.5-0.1-0.6
					c-0.1-0.1-0.2-0.1-0.3,0c-0.1,0.1-0.3,0.3-0.3,0.5C51.3,50.8,51.2,51.1,51.2,51.4z"/>
				<path class="st7" d="M53.1,51.1l-0.6-1.8l0.2-0.2l0.3,1.1c0.1,0.3,0.1,0.4,0.1,0.5l0,0c0-0.1,0-0.3,0.1-0.5
					c0.1-0.3,0.2-0.9,0.3-1.8l0.2-0.2L53.3,51L53.1,51.1z"/>
				<path class="st7" d="M54.7,50c-0.2,0.2-0.4,0.2-0.5,0.1c-0.1-0.1-0.2-0.3-0.2-0.7c0-0.4,0.1-0.7,0.2-1c0.1-0.3,0.3-0.5,0.5-0.7
					c0.2-0.1,0.3-0.1,0.4,0c0.1,0.1,0.2,0.3,0.2,0.6l0,0.2l-1,0.7c0,0.3,0.1,0.4,0.1,0.5c0.1,0.1,0.2,0.1,0.4,0
					c0.2-0.1,0.3-0.3,0.5-0.5l0,0.3c-0.1,0.1-0.2,0.2-0.2,0.3C54.9,49.8,54.8,49.9,54.7,50z M54.7,47.9c-0.1,0.1-0.2,0.2-0.3,0.4
					c-0.1,0.2-0.1,0.4-0.1,0.6l0.8-0.6c0-0.2,0-0.4-0.1-0.4C54.9,47.9,54.8,47.9,54.7,47.9z"/>
				<path class="st7" d="M56.3,46.5c0.1,0,0.1-0.1,0.2-0.1l0,0.3c-0.1,0-0.1,0.1-0.2,0.1c-0.1,0.1-0.2,0.2-0.3,0.4
					c-0.1,0.2-0.1,0.4-0.1,0.6l0,1.2l-0.2,0.2l0-2.3l0.2-0.1l0,0.4l0,0c0.1-0.2,0.1-0.3,0.2-0.5C56.1,46.6,56.2,46.5,56.3,46.5z"/>
				<path class="st7" d="M58.1,47.5c-0.2,0.2-0.4,0.2-0.5,0.1c-0.1-0.1-0.2-0.3-0.2-0.7c0-0.4,0.1-0.7,0.2-1
					c0.1-0.3,0.3-0.5,0.5-0.7c0.2-0.1,0.3-0.1,0.4,0c0.1,0.1,0.2,0.3,0.2,0.6l0,0.2l-1,0.7c0,0.3,0.1,0.4,0.1,0.5
					c0.1,0.1,0.2,0.1,0.4,0c0.2-0.1,0.3-0.3,0.5-0.5l0,0.3c-0.1,0.1-0.2,0.2-0.2,0.3C58.3,47.3,58.2,47.4,58.1,47.5z M58,45.5
					c-0.1,0.1-0.2,0.2-0.3,0.4c-0.1,0.2-0.1,0.4-0.1,0.6l0.8-0.6c0-0.2,0-0.4-0.1-0.4C58.2,45.4,58.2,45.4,58,45.5z"/>
				<path class="st7" d="M60,45.5c0,0.2,0,0.4-0.2,0.6c-0.1,0.2-0.2,0.4-0.4,0.5c-0.2,0.1-0.3,0.2-0.5,0.2l0-0.3c0.1,0,0.1,0,0.2,0
					c0.1,0,0.2-0.1,0.2-0.1c0.1-0.1,0.2-0.2,0.3-0.3c0.1-0.1,0.1-0.2,0.1-0.3c0-0.1,0-0.1-0.1-0.2c-0.1,0-0.1,0-0.3,0
					c-0.1,0-0.2,0-0.3,0c-0.1,0-0.1-0.1-0.1-0.1c0-0.1,0-0.1,0-0.2c0-0.2,0-0.4,0.1-0.5c0.1-0.2,0.2-0.3,0.4-0.5
					c0.2-0.1,0.3-0.2,0.5-0.2l-0.1,0.3c-0.1,0-0.3,0.1-0.4,0.2c-0.1,0.1-0.2,0.2-0.2,0.3c-0.1,0.1-0.1,0.2-0.1,0.3
					c0,0.1,0,0.1,0,0.1c0,0,0.1,0,0.1,0.1s0.1,0,0.3,0c0.2,0,0.3,0,0.4,0C59.9,45.2,60,45.3,60,45.5z"/>
				<path class="st7" d="M60.8,45.2c0,0,0.1-0.1,0.1-0.1c0,0,0.1-0.1,0.1-0.1l0,0.3c0,0-0.1,0.1-0.1,0.1c0,0-0.1,0.1-0.1,0.1
					c-0.3,0.2-0.4,0.1-0.4-0.4l0-1.4L60.1,44l0-0.2l0.2-0.3l0.1-0.6l0.1-0.1l0,0.5l0.4-0.3l0,0.3l-0.4,0.3l0,1.3
					c0,0.1,0,0.2,0.1,0.3C60.7,45.3,60.7,45.3,60.8,45.2z"/>
				<path class="st7" d="M62.2,44.4l0-0.3l0,0c-0.1,0.2-0.1,0.3-0.2,0.5c-0.1,0.1-0.2,0.2-0.3,0.3C61.5,45,61.4,45,61.3,45
					c-0.1-0.1-0.1-0.2-0.1-0.4c0-0.5,0.2-0.9,0.7-1.2l0.2-0.2l0-0.1c0-0.2,0-0.3-0.1-0.3c-0.1,0-0.1,0-0.2,0
					c-0.1,0.1-0.3,0.2-0.4,0.5L61.4,43c0.1-0.1,0.2-0.2,0.2-0.3c0.1-0.1,0.2-0.2,0.3-0.2c0.2-0.1,0.3-0.2,0.4-0.1
					c0.1,0.1,0.1,0.2,0.1,0.5l0,1.6L62.2,44.4z M61.7,44.6c0.1-0.1,0.2-0.2,0.3-0.4c0.1-0.2,0.1-0.4,0.1-0.6l0-0.2l-0.2,0.2
					c-0.2,0.1-0.3,0.3-0.4,0.4c-0.1,0.1-0.1,0.3-0.1,0.4c0,0.1,0,0.2,0.1,0.2C61.6,44.7,61.6,44.6,61.7,44.6z"/>
				<path class="st7" d="M64.2,43c-0.1,0.1-0.2,0.1-0.3,0.1c-0.1,0-0.1,0-0.2-0.1l0,0c0,0.1,0,0.2,0,0.4l0,0.9l-0.2,0.2l0-3.3
					l0.2-0.1l0,0.3l0,0c0.1-0.2,0.1-0.3,0.2-0.4c0.1-0.1,0.2-0.2,0.3-0.3c0.2-0.1,0.3-0.2,0.5,0c0.1,0.1,0.2,0.4,0.2,0.8
					c0,0.4,0,0.7-0.2,1C64.6,42.7,64.4,42.9,64.2,43z M64.2,41c-0.2,0.1-0.3,0.3-0.3,0.4c-0.1,0.2-0.1,0.4-0.1,0.7l0,0.1
					c0,0.3,0,0.5,0.1,0.6c0.1,0.1,0.2,0.1,0.3,0c0.1-0.1,0.2-0.2,0.3-0.5c0.1-0.2,0.1-0.5,0.1-0.7c0-0.3,0-0.5-0.1-0.6
					C64.4,40.9,64.3,40.9,64.2,41z"/>
				<path class="st7" d="M66.1,41.6l0-0.3l0,0c-0.1,0.2-0.1,0.3-0.2,0.5c-0.1,0.1-0.2,0.2-0.3,0.3c-0.1,0.1-0.3,0.1-0.3,0.1
					c-0.1-0.1-0.1-0.2-0.1-0.4c0-0.5,0.2-0.9,0.7-1.2l0.2-0.2l0-0.1c0-0.2,0-0.3-0.1-0.3c-0.1,0-0.1,0-0.2,0
					c-0.1,0.1-0.3,0.2-0.4,0.5l-0.1-0.2c0.1-0.1,0.2-0.2,0.2-0.3c0.1-0.1,0.2-0.2,0.3-0.2c0.2-0.1,0.3-0.2,0.4-0.1
					c0.1,0.1,0.1,0.2,0.1,0.5l0,1.6L66.1,41.6z M65.6,41.7c0.1-0.1,0.2-0.2,0.3-0.4c0.1-0.2,0.1-0.4,0.1-0.6l0-0.2l-0.2,0.2
					c-0.2,0.1-0.3,0.3-0.4,0.4c-0.1,0.1-0.1,0.3-0.1,0.4c0,0.1,0,0.2,0.1,0.2C65.5,41.8,65.5,41.8,65.6,41.7z"/>
				<path class="st7" d="M67.7,39.8c0,0.2,0,0.4-0.1,0.6c-0.1,0.2-0.2,0.4-0.4,0.5c-0.2,0.1-0.3,0.2-0.5,0.2l0-0.3
					c0.1,0,0.1,0,0.2,0c0.1,0,0.2-0.1,0.2-0.1c0.1-0.1,0.2-0.2,0.3-0.3c0.1-0.1,0.1-0.2,0.1-0.3c0-0.1,0-0.1-0.1-0.2
					c-0.1,0-0.1,0-0.3,0c-0.1,0-0.2,0-0.3,0c-0.1,0-0.1-0.1-0.1-0.1c0-0.1,0-0.1,0-0.2c0-0.2,0-0.4,0.1-0.5c0.1-0.2,0.2-0.3,0.4-0.5
					c0.2-0.1,0.3-0.2,0.5-0.2l-0.1,0.3c-0.1,0-0.3,0.1-0.4,0.2c-0.1,0.1-0.2,0.2-0.2,0.3c-0.1,0.1-0.1,0.2-0.1,0.3
					c0,0.1,0,0.1,0,0.1c0,0,0.1,0,0.1,0.1s0.1,0,0.3,0c0.2,0,0.3,0,0.4,0C67.7,39.5,67.7,39.6,67.7,39.8z"/>
				<path class="st7" d="M68.5,39.6c0,0,0.1-0.1,0.1-0.1c0,0,0.1-0.1,0.1-0.1l0,0.3c0,0-0.1,0.1-0.1,0.1c0,0-0.1,0.1-0.1,0.1
					c-0.3,0.2-0.4,0.1-0.4-0.4l0-1.4l-0.2,0.2l0-0.2l0.2-0.3l0.1-0.6l0.1-0.1l0,0.5l0.4-0.3l0,0.3L68.3,38l0,1.3
					c0,0.1,0,0.2,0.1,0.3C68.4,39.6,68.5,39.6,68.5,39.6z"/>
				<path class="st7" d="M69.9,38.8l0-0.3l0,0c-0.1,0.2-0.1,0.3-0.2,0.5c-0.1,0.1-0.2,0.2-0.3,0.3c-0.1,0.1-0.3,0.1-0.3,0.1
					c-0.1-0.1-0.1-0.2-0.1-0.4c0-0.5,0.2-0.9,0.7-1.2l0.2-0.2l0-0.1c0-0.2,0-0.3-0.1-0.3c-0.1,0-0.1,0-0.2,0
					c-0.1,0.1-0.3,0.3-0.4,0.5l-0.1-0.2c0.1-0.1,0.2-0.2,0.2-0.3c0.1-0.1,0.2-0.2,0.3-0.2c0.2-0.1,0.3-0.2,0.4-0.1
					c0.1,0.1,0.1,0.2,0.1,0.5l0,1.6L69.9,38.8z M69.4,38.9c0.1-0.1,0.2-0.2,0.3-0.4c0.1-0.2,0.1-0.4,0.1-0.6l0-0.2l-0.2,0.2
					c-0.2,0.1-0.3,0.3-0.4,0.4c-0.1,0.1-0.1,0.3-0.1,0.4c0,0.1,0,0.2,0.1,0.2C69.3,39,69.3,39,69.4,38.9z"/>
				<path class="st7" d="M72,37.4c-0.1,0.1-0.2,0.1-0.3,0.1c-0.1,0-0.1,0-0.2-0.1l0,0c0,0.1,0,0.2,0,0.4l0,0.9l-0.2,0.2l0-3.3
					l0.2-0.1l0,0.3l0,0c0.1-0.2,0.1-0.3,0.2-0.4c0.1-0.1,0.2-0.2,0.3-0.3c0.2-0.1,0.3-0.1,0.5,0c0.1,0.1,0.2,0.4,0.2,0.8
					c0,0.4,0,0.7-0.2,1C72.3,37,72.1,37.2,72,37.4z M71.9,35.3c-0.2,0.1-0.3,0.3-0.3,0.4c-0.1,0.2-0.1,0.4-0.1,0.7l0,0.1
					c0,0.3,0,0.5,0.1,0.6c0.1,0.1,0.2,0.1,0.3,0c0.1-0.1,0.2-0.2,0.3-0.5c0.1-0.2,0.1-0.5,0.1-0.7c0-0.3,0-0.5-0.1-0.6
					C72.1,35.2,72,35.2,71.9,35.3z"/>
				<path class="st7" d="M73.9,35.9l0-0.3l0,0c-0.1,0.2-0.1,0.3-0.2,0.5c-0.1,0.1-0.2,0.2-0.3,0.3c-0.1,0.1-0.3,0.1-0.3,0.1
					c-0.1-0.1-0.1-0.2-0.1-0.4c0-0.5,0.2-0.9,0.7-1.3l0.2-0.2l0-0.1c0-0.2,0-0.3-0.1-0.3c-0.1,0-0.1,0-0.2,0
					c-0.1,0.1-0.3,0.3-0.4,0.5L73,34.4c0.1-0.1,0.2-0.2,0.2-0.3c0.1-0.1,0.2-0.2,0.3-0.2c0.2-0.1,0.3-0.2,0.4-0.1
					C74,33.8,74,34,74,34.2l0,1.6L73.9,35.9z M73.4,36c0.1-0.1,0.2-0.2,0.3-0.4c0.1-0.2,0.1-0.4,0.1-0.6l0-0.2L73.6,35
					c-0.2,0.1-0.3,0.3-0.4,0.4c-0.1,0.1-0.1,0.3-0.1,0.4c0,0.1,0,0.2,0.1,0.2C73.2,36.1,73.3,36.1,73.4,36z"/>
				<path class="st7" d="M75.1,32.6c0.1,0,0.1-0.1,0.2-0.1l0,0.3c-0.1,0-0.1,0.1-0.2,0.1c-0.1,0.1-0.2,0.2-0.3,0.5
					c-0.1,0.2-0.1,0.4-0.1,0.7l0,1.2l-0.2,0.2l0-2.3l0.2-0.1l0,0.4l0,0c0.1-0.2,0.1-0.4,0.2-0.5C75,32.8,75,32.7,75.1,32.6z"/>
				<path class="st7" d="M76.5,34l0-0.3l0,0c-0.1,0.2-0.1,0.4-0.2,0.5c-0.1,0.1-0.2,0.2-0.3,0.3c-0.1,0.1-0.3,0.1-0.3,0.1
					c-0.1-0.1-0.1-0.2-0.1-0.4c0-0.5,0.2-0.9,0.7-1.3l0.2-0.2l0-0.1c0-0.2,0-0.3-0.1-0.3c-0.1,0-0.1,0-0.2,0
					c-0.1,0.1-0.3,0.3-0.4,0.5l-0.1-0.2c0.1-0.1,0.2-0.2,0.2-0.3c0.1-0.1,0.2-0.2,0.3-0.2c0.2-0.1,0.3-0.2,0.4-0.1
					c0.1,0.1,0.1,0.2,0.1,0.5l0,1.6L76.5,34z M76,34.1c0.1-0.1,0.2-0.2,0.3-0.4c0.1-0.2,0.1-0.4,0.1-0.6l0-0.2l-0.2,0.2
					c-0.2,0.1-0.3,0.3-0.4,0.4c-0.1,0.1-0.1,0.3-0.1,0.4c0,0.1,0,0.2,0.1,0.2C75.8,34.2,75.9,34.2,76,34.1z"/>
				<path class="st7" d="M78.7,32.3l0-0.3l0,0c-0.1,0.2-0.1,0.4-0.2,0.5c-0.1,0.1-0.2,0.2-0.3,0.3c-0.1,0.1-0.3,0.1-0.3,0.1
					c-0.1-0.1-0.1-0.2-0.1-0.4c0-0.5,0.2-0.9,0.7-1.3l0.2-0.2l0-0.1c0-0.2,0-0.3-0.1-0.3c-0.1-0.1-0.1,0-0.2,0
					c-0.1,0.1-0.3,0.3-0.4,0.5l-0.1-0.2c0.1-0.1,0.2-0.2,0.2-0.3c0.1-0.1,0.2-0.2,0.3-0.2c0.2-0.1,0.3-0.2,0.4-0.1
					c0.1,0.1,0.1,0.2,0.1,0.5l0,1.6L78.7,32.3z M78.2,32.5c0.1-0.1,0.2-0.2,0.3-0.4c0.1-0.2,0.1-0.4,0.1-0.6l0-0.2l-0.2,0.2
					c-0.2,0.1-0.3,0.3-0.4,0.4C78,32,78,32.1,78,32.3c0,0.1,0,0.2,0.1,0.2C78.1,32.5,78.2,32.5,78.2,32.5z"/>
				<path class="st7" d="M80.1,31.3l0-3.1l0.2-0.2l0,2.8l0.9-0.6l0,0.3L80.1,31.3z"/>
				<path class="st7" d="M81.5,27.4c0-0.1,0-0.1,0-0.2c0-0.1,0.1-0.1,0.1-0.1c0,0,0.1,0,0.1,0c0,0,0,0.1,0,0.1s0,0.1,0,0.2
					c0,0.1-0.1,0.1-0.1,0.1c0,0-0.1,0-0.1,0C81.5,27.5,81.5,27.5,81.5,27.4z M81.7,30.2l-0.2,0.2l0-2.3l0.2-0.2L81.7,30.2z"/>
				<path class="st7" d="M82.5,28.4L82,27.6l0.3-0.2l0.4,0.6l0.4-1.2l0.3-0.2l-0.5,1.5l0.5,0.8l-0.3,0.2l-0.4-0.6l-0.4,1.2L82,29.9
					L82.5,28.4z"/>
				<path class="st7" d="M84.3,28.3c-0.2,0.2-0.4,0.2-0.5,0.1c-0.1-0.1-0.2-0.4-0.2-0.7c0-0.4,0.1-0.7,0.2-1
					c0.1-0.3,0.3-0.5,0.5-0.7c0.2-0.1,0.3-0.1,0.4,0c0.1,0.1,0.2,0.3,0.2,0.6l0,0.2l-1,0.7c0,0.3,0.1,0.4,0.1,0.5
					c0.1,0.1,0.2,0.1,0.4,0c0.2-0.1,0.3-0.3,0.5-0.5l0,0.3c-0.1,0.1-0.2,0.2-0.2,0.3C84.4,28.2,84.4,28.3,84.3,28.3z M84.2,26.3
					c-0.1,0.1-0.2,0.2-0.3,0.4c-0.1,0.2-0.1,0.4-0.1,0.6l0.8-0.6c0-0.2,0-0.4-0.1-0.4C84.4,26.2,84.3,26.2,84.2,26.3z"/>
				<path class="st7" d="M85.1,24.7c0-0.1,0-0.1,0-0.2c0-0.1,0.1-0.1,0.1-0.1c0,0,0.1,0,0.1,0c0,0,0,0.1,0,0.1s0,0.1,0,0.2
					c0,0.1-0.1,0.1-0.1,0.1c0,0-0.1,0-0.1,0C85.1,24.8,85.1,24.8,85.1,24.7z M85.4,27.5l-0.2,0.2l0-2.3l0.2-0.2L85.4,27.5z"/>
				<path class="st7" d="M86.5,24.3c0.1,0,0.1-0.1,0.2-0.1l0,0.4c-0.1,0-0.1,0.1-0.2,0.1c-0.1,0.1-0.2,0.2-0.3,0.5
					c-0.1,0.2-0.1,0.4-0.1,0.7l0,1.3l-0.2,0.2l0-2.3l0.2-0.1l0,0.4l0,0c0.1-0.2,0.1-0.4,0.2-0.5C86.3,24.4,86.4,24.3,86.5,24.3z"/>
				<path class="st7" d="M87.9,25.6l0-0.3l0,0c-0.1,0.2-0.1,0.4-0.2,0.5c-0.1,0.1-0.2,0.2-0.3,0.3c-0.1,0.1-0.3,0.1-0.3,0.1
					c-0.1-0.1-0.1-0.2-0.1-0.4c0-0.5,0.2-0.9,0.7-1.3l0.2-0.2l0-0.1c0-0.2,0-0.3-0.1-0.4c-0.1-0.1-0.1,0-0.2,0
					c-0.1,0.1-0.3,0.3-0.4,0.5L87,24.1c0.1-0.1,0.2-0.2,0.2-0.3c0.1-0.1,0.2-0.2,0.3-0.2c0.2-0.1,0.3-0.2,0.4-0.1
					c0.1,0.1,0.1,0.2,0.1,0.5l0,1.6L87.9,25.6z M87.4,25.8c0.1-0.1,0.2-0.2,0.3-0.4c0.1-0.2,0.1-0.4,0.1-0.6l0-0.2l-0.2,0.2
					c-0.2,0.1-0.3,0.3-0.4,0.4c-0.1,0.1-0.1,0.3-0.1,0.4c0,0.1,0,0.2,0.1,0.2C87.2,25.8,87.3,25.8,87.4,25.8z"/>
				<path class="st7" d="M88.7,24.2l0-0.1c0-0.2,0-0.3,0-0.4c0-0.1,0.1-0.3,0.2-0.5c0.1-0.3,0.2-0.4,0.2-0.5c0-0.1,0-0.2,0-0.3
					c0-0.1,0-0.2-0.1-0.3c-0.1,0-0.1,0-0.3,0.1c-0.1,0.1-0.1,0.1-0.2,0.2c-0.1,0.1-0.1,0.2-0.2,0.3l-0.1-0.2
					c0.2-0.3,0.3-0.5,0.5-0.6c0.2-0.1,0.3-0.2,0.4-0.1c0.1,0.1,0.1,0.2,0.1,0.5c0,0.1,0,0.2,0,0.3c0,0.1,0,0.2-0.1,0.3
					c0,0.1-0.1,0.3-0.2,0.5c-0.1,0.2-0.1,0.3-0.2,0.4c0,0.1,0,0.2,0,0.4l0,0.1L88.7,24.2z M88.6,24.9c0-0.2,0.1-0.3,0.2-0.4
					c0.1,0,0.1,0,0.1,0c0,0,0,0.1,0,0.2c0,0.1,0,0.2,0,0.2c0,0.1-0.1,0.1-0.1,0.2c0,0-0.1,0-0.1,0C88.6,25.1,88.6,25,88.6,24.9z"/>
			</g>
			<g>
				<path class="st7" d="M11.9,67.9l-0.7,0.6l0-2l0.7-0.6l0,0.2l-0.6,0.4l0,0.6l0.6-0.4l0,0.2l-0.6,0.4l0,0.7l0.6-0.4L11.9,67.9z"/>
				<path class="st7" d="M12.4,66.8l-0.3-0.5l0.2-0.1l0.3,0.4l0.3-0.8l0.2-0.1l-0.3,1l0.4,0.5l-0.2,0.1L12.4,66.8l-0.2,0.9L12,67.8
					L12.4,66.8z"/>
				<path class="st7" d="M13.5,66.7c-0.1,0.1-0.3,0.1-0.3,0.1c-0.1-0.1-0.1-0.2-0.1-0.5c0-0.2,0-0.5,0.1-0.7
					c0.1-0.2,0.2-0.3,0.3-0.5c0,0,0.1-0.1,0.1-0.1c0,0,0.1,0,0.1,0l0,0.2c0,0-0.1,0-0.1,0c0,0-0.1,0-0.1,0.1
					c-0.2,0.2-0.3,0.4-0.3,0.8c0,0.2,0,0.3,0.1,0.4c0,0.1,0.1,0.1,0.2,0c0.1-0.1,0.2-0.2,0.3-0.3l0,0.2
					C13.7,66.5,13.6,66.6,13.5,66.7z"/>
				<path class="st7" d="M14.2,66.2L14,66.3l0-2.1l0.2-0.1L14.2,66.2z"/>
				<path class="st7" d="M14.6,64.4l0,1c0,0.1,0,0.2,0.1,0.2c0,0,0.1,0,0.2,0c0.1-0.1,0.2-0.2,0.2-0.3c0-0.1,0.1-0.3,0.1-0.5l0-0.8
					l0.2-0.1l0,1.5l-0.1,0.1l0-0.2l0,0c0,0.1-0.1,0.2-0.1,0.3c-0.1,0.1-0.1,0.1-0.2,0.2c-0.1,0.1-0.2,0.1-0.3,0.1
					c-0.1,0-0.1-0.2-0.1-0.3l0-1L14.6,64.4z"/>
				<path class="st7" d="M15.6,63.2c0-0.1,0-0.1,0-0.1c0,0,0-0.1,0.1-0.1c0,0,0,0,0.1,0c0,0,0,0,0,0.1c0,0.1,0,0.1,0,0.1
					C15.8,63.3,15.8,63.3,15.6,63.2C15.7,63.3,15.7,63.3,15.6,63.2C15.6,63.3,15.6,63.3,15.6,63.2z M15.8,65l-0.2,0.1l0-1.5l0.2-0.1
					L15.8,65z"/>
				<path class="st7" d="M16.6,62.9c0,0,0.1-0.1,0.1-0.1l0,0.2c0,0-0.1,0-0.1,0.1c-0.1,0.1-0.2,0.2-0.2,0.3
					c-0.1,0.1-0.1,0.3-0.1,0.4l0,0.8l-0.2,0.1l0-1.5l0.1-0.1l0,0.3l0,0c0-0.1,0.1-0.2,0.1-0.3C16.5,63,16.5,62.9,16.6,62.9z"/>
				<path class="st7" d="M18.2,61.7c0,0.2,0,0.4-0.1,0.6c-0.1,0.2-0.2,0.3-0.4,0.5l-0.2,0.1l0,0.8l-0.2,0.1l0-2l0.3-0.3
					C18.1,61.3,18.2,61.4,18.2,61.7z M17.5,62.7l0.1-0.1c0.1-0.1,0.2-0.2,0.3-0.3c0.1-0.1,0.1-0.2,0.1-0.4c0-0.1,0-0.2-0.1-0.2
					c-0.1,0-0.1,0-0.3,0.1l-0.2,0.1L17.5,62.7z"/>
				<path class="st7" d="M19.1,62.5l0-0.2l0,0c0,0.1-0.1,0.2-0.1,0.3c0,0.1-0.1,0.1-0.2,0.2c-0.1,0.1-0.2,0.1-0.2,0.1
					c-0.1,0-0.1-0.1-0.1-0.3c0-0.3,0.2-0.6,0.5-0.8l0.2-0.1l0-0.1c0-0.1,0-0.2-0.1-0.2c0,0-0.1,0-0.2,0c-0.1,0.1-0.2,0.2-0.3,0.3
					l0-0.1c0-0.1,0.1-0.1,0.2-0.2c0.1-0.1,0.1-0.1,0.2-0.2c0.1-0.1,0.2-0.1,0.3-0.1c0.1,0,0.1,0.1,0.1,0.3l0,1L19.1,62.5z
					 M18.8,62.6c0.1-0.1,0.2-0.2,0.2-0.3c0.1-0.1,0.1-0.2,0.1-0.4l0-0.1l-0.2,0.1c-0.1,0.1-0.2,0.2-0.3,0.3
					c-0.1,0.1-0.1,0.2-0.1,0.3c0,0.1,0,0.1,0,0.1C18.7,62.6,18.7,62.6,18.8,62.6z"/>
				<path class="st7" d="M20.2,61.3c0,0.1,0,0.3-0.1,0.4c-0.1,0.1-0.2,0.2-0.3,0.3c-0.1,0.1-0.2,0.1-0.3,0.1l0-0.2c0,0,0.1,0,0.2,0
					c0.1,0,0.1-0.1,0.2-0.1c0.1-0.1,0.1-0.1,0.2-0.2c0-0.1,0.1-0.1,0.1-0.2c0-0.1,0-0.1-0.1-0.1c0,0-0.1,0-0.2,0c-0.1,0-0.2,0-0.2,0
					c0,0-0.1,0-0.1-0.1c0,0,0-0.1,0-0.2c0-0.1,0-0.2,0.1-0.4c0.1-0.1,0.2-0.2,0.3-0.3c0.1-0.1,0.2-0.1,0.3-0.1l-0.1,0.2
					c-0.1,0-0.2,0.1-0.3,0.1c-0.1,0.1-0.1,0.1-0.2,0.2s-0.1,0.1-0.1,0.2c0,0,0,0.1,0,0.1c0,0,0,0,0.1,0c0,0,0.1,0,0.2,0
					c0.1,0,0.2,0,0.2,0C20.2,61.1,20.2,61.2,20.2,61.3z"/>
				<path class="st7" d="M20.8,61.1C20.8,61.1,20.8,61.1,20.8,61.1c0.1-0.1,0.1-0.1,0.1-0.1l0,0.2c0,0,0,0.1-0.1,0.1
					c0,0-0.1,0.1-0.1,0.1c-0.2,0.1-0.3,0.1-0.3-0.2l0-0.9l-0.1,0.1l0-0.1l0.1-0.2l0.1-0.4l0.1-0.1l0,0.3l0.3-0.2l0,0.2l-0.3,0.2
					l0,0.9c0,0.1,0,0.1,0,0.2C20.7,61.1,20.7,61.1,20.8,61.1z"/>
				<path class="st7" d="M21.7,60.5l0-0.2l0,0c0,0.1-0.1,0.2-0.1,0.3c0,0.1-0.1,0.1-0.2,0.2c-0.1,0.1-0.2,0.1-0.2,0.1
					c-0.1,0-0.1-0.1-0.1-0.3c0-0.3,0.2-0.6,0.5-0.8l0.2-0.1l0-0.1c0-0.1,0-0.2-0.1-0.2c0,0-0.1,0-0.2,0c-0.1,0.1-0.2,0.2-0.3,0.3
					l0-0.1c0-0.1,0.1-0.1,0.2-0.2c0.1-0.1,0.1-0.1,0.2-0.2c0.1-0.1,0.2-0.1,0.3-0.1c0.1,0,0.1,0.1,0.1,0.3l0,1L21.7,60.5z
					 M21.4,60.6c0.1-0.1,0.2-0.2,0.2-0.3c0.1-0.1,0.1-0.2,0.1-0.4l0-0.1L21.5,60c-0.1,0.1-0.2,0.2-0.3,0.3c-0.1,0.1-0.1,0.2-0.1,0.3
					c0,0.1,0,0.1,0.1,0.1C21.3,60.7,21.3,60.7,21.4,60.6z"/>
			</g>
			<g>
				<g>
					<path class="st8" d="M86.7,10.9L85.9,10l0.4-0.3l0.6,0.7l0.6-1.5l0.4-0.3l-0.7,2l0.8,0.9l-0.4,0.3l-0.6-0.7l-0.6,1.6l-0.4,0.3
						L86.7,10.9z"/>
				</g>
			</g>
			<g>
				<path class="st7" d="M64.6,80.3c0,0.2,0,0.4-0.1,0.5c-0.1,0.2-0.2,0.3-0.3,0.4c-0.2,0.1-0.3,0.2-0.4,0.2l0-0.2
					c0.1,0,0.1,0,0.2,0c0.1,0,0.1-0.1,0.2-0.1c0.1-0.1,0.2-0.2,0.2-0.3c0.1-0.1,0.1-0.2,0.1-0.3c0-0.1,0-0.1,0-0.2
					c0,0-0.1-0.1-0.1-0.1c0,0-0.1,0-0.2,0c-0.1,0-0.2,0-0.3-0.1c-0.1-0.1-0.1-0.2-0.1-0.3c0-0.2,0-0.3,0.1-0.5
					c0.1-0.1,0.2-0.3,0.3-0.4c0.1-0.1,0.3-0.1,0.4-0.1l0,0.2c-0.1,0-0.2,0-0.3,0.1c-0.1,0.1-0.1,0.1-0.2,0.2c0,0.1-0.1,0.2-0.1,0.3
					c0,0.1,0,0.1,0,0.2c0,0,0,0.1,0.1,0.1c0,0,0.1,0,0.2,0c0.1,0,0.2,0,0.3,0C64.6,80,64.6,80.1,64.6,80.3z"/>
				<path class="st7" d="M64.8,78.7c0-0.1,0-0.1,0-0.1c0,0,0-0.1,0.1-0.1c0,0,0,0,0.1,0c0,0,0,0,0,0.1c0,0.1,0,0.1,0,0.1
					C65,78.7,65,78.7,64.8,78.7c0.1,0.1,0,0.1,0,0.1C64.8,78.8,64.8,78.7,64.8,78.7z M65,80.5l-0.2,0.1l0-1.6L65,79L65,80.5z"/>
				<path class="st7" d="M66.6,79.4l0-1c0-0.1,0-0.2-0.1-0.2c0,0-0.1,0-0.2,0c-0.1,0.1-0.2,0.2-0.2,0.3c0,0.1-0.1,0.3-0.1,0.4l0,0.9
					L66,79.9l0-1c0-0.1,0-0.2-0.1-0.2c0,0-0.1,0-0.2,0c-0.1,0.1-0.2,0.2-0.2,0.3c0,0.1-0.1,0.3-0.1,0.5l0,0.8l-0.2,0.1l0-1.6
					l0.1-0.1l0,0.2l0,0c0-0.1,0.1-0.2,0.1-0.3c0.1-0.1,0.1-0.1,0.2-0.2c0.2-0.1,0.3-0.1,0.3,0.1l0,0c0-0.1,0.1-0.2,0.1-0.3
					c0.1-0.1,0.1-0.2,0.2-0.2c0.1-0.1,0.2-0.1,0.3,0c0.1,0.1,0.1,0.2,0.1,0.4l0,1L66.6,79.4z"/>
			</g>
			<g>
				<path class="st7" d="M82.1,68.8l-0.2,0.1l-0.7-1.3l0,0c0,0.2,0,0.4,0,0.6l0,1.2L81,69.5l0-2.1l0.2-0.1l0.7,1.3l0,0
					c0,0,0-0.1,0-0.2c0-0.1,0-0.2,0-0.3l0-1.2l0.1-0.1L82.1,68.8z"/>
				<path class="st7" d="M83,68.2l0-0.2l0,0c0,0.1-0.1,0.2-0.1,0.3c0,0.1-0.1,0.1-0.2,0.2c-0.1,0.1-0.2,0.1-0.2,0
					c-0.1,0-0.1-0.1-0.1-0.3c0-0.3,0.2-0.6,0.5-0.8l0.2-0.1l0-0.1c0-0.1,0-0.2-0.1-0.2c0,0-0.1,0-0.2,0c-0.1,0.1-0.2,0.2-0.3,0.3
					l0-0.2c0-0.1,0.1-0.1,0.2-0.2c0.1-0.1,0.1-0.1,0.2-0.2c0.1-0.1,0.2-0.1,0.3-0.1c0.1,0,0.1,0.2,0.1,0.3l0,1.1L83,68.2z
					 M82.9,66.4C82.9,66.5,82.8,66.5,82.9,66.4c-0.1,0-0.1,0-0.2,0c0,0,0,0-0.1,0c0,0,0,0-0.1,0c0,0-0.1,0.1-0.1,0.1
					c0,0,0,0.1,0,0.2l-0.1,0.1c0-0.1,0-0.2,0.1-0.3c0-0.1,0.1-0.2,0.1-0.2c0,0,0.1,0,0.1,0c0,0,0.1,0,0.1,0c0,0,0,0,0.1,0
					c0,0,0,0,0.1,0c0,0,0.1-0.1,0.1-0.1c0,0,0-0.1,0-0.2l0.1-0.1c0,0.1,0,0.2-0.1,0.3C83,66.3,82.9,66.4,82.9,66.4z M82.7,68.2
					c0.1-0.1,0.2-0.2,0.2-0.3c0.1-0.1,0.1-0.3,0.1-0.4l0-0.1l-0.2,0.1c-0.1,0.1-0.2,0.2-0.3,0.3c-0.1,0.1-0.1,0.2-0.1,0.3
					c0,0.1,0,0.1,0.1,0.2C82.6,68.3,82.6,68.3,82.7,68.2z"/>
				<path class="st7" d="M84.3,66.5c0,0.3,0,0.5-0.1,0.7c-0.1,0.2-0.2,0.4-0.3,0.5c-0.1,0.1-0.2,0.1-0.2,0.1c-0.1,0-0.1-0.1-0.2-0.2
					c0-0.1-0.1-0.2-0.1-0.4c0-0.3,0-0.5,0.1-0.7c0.1-0.2,0.2-0.4,0.3-0.5c0.1-0.1,0.3-0.1,0.3,0C84.3,66.1,84.3,66.2,84.3,66.5z
					 M83.5,67c0,0.2,0,0.3,0.1,0.4c0.1,0.1,0.1,0.1,0.2,0c0.1-0.1,0.2-0.2,0.2-0.3c0.1-0.1,0.1-0.3,0.1-0.5c0-0.2,0-0.3-0.1-0.4
					c-0.1-0.1-0.1-0.1-0.2,0c-0.1,0.1-0.2,0.2-0.2,0.3C83.6,66.6,83.5,66.8,83.5,67z"/>
			</g>
			<g>
				<path class="st7" d="M43.3,71.2c0,0.7-0.1,1.4-0.4,2c-0.3,0.6-0.7,1.1-1.2,1.4l-0.8,0.6l0-4.4l0.9-0.7c0.5-0.3,0.9-0.4,1.1-0.2
					C43.1,70.1,43.3,70.5,43.3,71.2z M42.6,71.7c0-1-0.3-1.2-0.8-0.8l-0.3,0.2l0,2.9l0.3-0.2C42.3,73.4,42.6,72.7,42.6,71.7z"/>
				<path class="st7" d="M45.2,72.1l-0.1-0.4l0,0c-0.1,0.3-0.2,0.5-0.3,0.6c-0.1,0.2-0.3,0.3-0.4,0.4c-0.2,0.2-0.4,0.2-0.5,0.1
					c-0.1-0.1-0.2-0.3-0.2-0.7c0-0.4,0.1-0.7,0.2-1c0.2-0.3,0.4-0.6,0.8-0.8l0.4-0.3l0-0.1c0-0.3-0.1-0.4-0.4-0.3
					c-0.2,0.1-0.4,0.4-0.6,0.7l-0.2-0.5c0.3-0.4,0.5-0.7,0.9-0.9c0.3-0.2,0.5-0.3,0.7-0.2c0.2,0.1,0.2,0.3,0.2,0.7l0,2.3L45.2,72.1z
					 M45.1,70.6l-0.2,0.2c-0.2,0.1-0.3,0.3-0.4,0.4c-0.1,0.2-0.1,0.3-0.1,0.5c0,0.3,0.1,0.3,0.3,0.2c0.1-0.1,0.3-0.2,0.3-0.4
					c0.1-0.2,0.1-0.4,0.1-0.6L45.1,70.6z"/>
				<path class="st7" d="M47,70.9c-0.3,0.2-0.5,0.2-0.6,0c-0.2-0.2-0.2-0.6-0.2-1.1c0-0.6,0.1-1,0.2-1.5c0.2-0.4,0.4-0.7,0.6-0.9
					c0.3-0.2,0.5-0.2,0.6,0l0,0c0-0.2,0-0.4,0-0.6l0-1.1l0.6-0.4l0,4.8l-0.5,0.3l-0.1-0.4l0,0C47.5,70.3,47.3,70.7,47,70.9z
					 M47.2,70c0.2-0.1,0.3-0.3,0.3-0.5c0.1-0.2,0.1-0.5,0.1-0.8l0-0.1c0-0.4,0-0.6-0.1-0.7c-0.1-0.1-0.2-0.1-0.4,0
					c-0.1,0.1-0.2,0.3-0.3,0.5c-0.1,0.2-0.1,0.5-0.1,0.8s0,0.6,0.1,0.7C47,70.1,47.1,70.1,47.2,70z"/>
				<path class="st7" d="M50.9,66.3c0,0.6-0.1,1.1-0.3,1.5c-0.2,0.5-0.5,0.8-0.8,1c-0.2,0.2-0.4,0.2-0.6,0.2c-0.2,0-0.3-0.1-0.4-0.3
					c-0.1-0.2-0.1-0.5-0.1-0.8c0-0.6,0.1-1.1,0.3-1.5c0.2-0.4,0.5-0.8,0.8-1c0.2-0.2,0.4-0.2,0.6-0.2c0.2,0,0.3,0.1,0.4,0.3
					C50.9,65.6,50.9,65.9,50.9,66.3z M49.4,67.4c0,0.3,0,0.6,0.1,0.7c0.1,0.1,0.2,0.1,0.4,0c0.2-0.1,0.3-0.3,0.4-0.5
					c0.1-0.2,0.1-0.5,0.1-0.8c0-0.3,0-0.6-0.1-0.7c-0.1-0.1-0.2-0.1-0.4,0c-0.2,0.1-0.3,0.3-0.4,0.5C49.4,66.8,49.4,67,49.4,67.4z"
					/>
				<path class="st7" d="M53,65.5c0,0.4-0.1,0.7-0.2,1c-0.2,0.3-0.4,0.6-0.7,0.8c-0.2,0.1-0.3,0.2-0.4,0.2c-0.1,0-0.2,0.1-0.3,0.1
					l0-0.8c0.1,0,0.2,0,0.4-0.1c0.1,0,0.3-0.1,0.4-0.2c0.2-0.2,0.3-0.3,0.3-0.5c0-0.1,0-0.1,0-0.1c0,0-0.1,0-0.2,0
					c-0.1,0-0.2,0-0.3,0c-0.2,0-0.3,0-0.4,0c-0.1,0-0.1-0.1-0.2-0.2c0-0.1-0.1-0.2-0.1-0.4c0-0.3,0.1-0.6,0.2-0.9
					c0.2-0.3,0.4-0.5,0.7-0.7c0.3-0.2,0.5-0.3,0.8-0.3l-0.2,0.8c-0.1,0-0.2,0-0.3,0c-0.1,0-0.2,0.1-0.3,0.1
					c-0.2,0.1-0.3,0.3-0.3,0.4c0,0.1,0,0.1,0.1,0.2c0.1,0,0.2,0,0.4,0c0.2,0,0.3,0,0.4,0c0.1,0,0.1,0.1,0.2,0.2
					C53,65.2,53,65.3,53,65.5z"/>
				<path class="st7" d="M56.3,62.9c0,0.4-0.1,0.8-0.3,1.2c-0.2,0.4-0.5,0.7-0.8,0.9c-0.3,0.2-0.6,0.3-0.8,0.3l0-0.9
					c0.2,0,0.4,0,0.5-0.1c0.1,0,0.3-0.1,0.4-0.2c0.1-0.1,0.2-0.2,0.3-0.3c0.1-0.1,0.1-0.3,0.1-0.4c0-0.1,0-0.2,0-0.2
					c0,0-0.1-0.1-0.1-0.1c-0.1,0-0.2,0-0.4,0c-0.2,0-0.3,0-0.4-0.1c-0.1-0.1-0.2-0.1-0.2-0.3c-0.1-0.1-0.1-0.3-0.1-0.5
					c0-0.4,0.1-0.8,0.3-1.1c0.2-0.4,0.4-0.6,0.7-0.9c0.2-0.1,0.3-0.2,0.4-0.2c0.1,0,0.3-0.1,0.4-0.1l-0.2,0.9c-0.2,0-0.3,0-0.4,0.1
					c-0.1,0-0.2,0.1-0.3,0.2c-0.1,0.1-0.2,0.2-0.3,0.3c-0.1,0.1-0.1,0.3-0.1,0.4c0,0.1,0,0.1,0,0.2c0,0,0.1,0.1,0.1,0.1
					c0.1,0,0.2,0,0.4,0c0.3,0,0.5,0.1,0.6,0.2C56.3,62.4,56.3,62.6,56.3,62.9z"/>
				<path class="st7" d="M56.8,59.5c0-0.3,0.1-0.5,0.3-0.7c0.2-0.2,0.3-0.1,0.3,0.2c0,0.1,0,0.3-0.1,0.4c-0.1,0.1-0.1,0.2-0.2,0.3
					C56.9,59.9,56.8,59.8,56.8,59.5z M57.4,63.4l-0.6,0.4l0-3.4l0.6-0.4L57.4,63.4z"/>
				<path class="st7" d="M60,58l0,0.5l-0.4,0.4c0.1,0.1,0.1,0.3,0.1,0.5c0,0.4-0.1,0.7-0.2,1c-0.2,0.3-0.4,0.6-0.7,0.8l-0.1,0.1
					l-0.1,0c-0.1,0.1-0.1,0.2-0.1,0.3c0,0.1,0.1,0.1,0.3,0l0.4-0.3c0.2-0.2,0.4-0.2,0.6-0.2c0.1,0.1,0.2,0.3,0.2,0.6
					c0,0.4-0.1,0.8-0.3,1.2c-0.2,0.4-0.5,0.7-0.9,1c-0.3,0.2-0.6,0.3-0.7,0.3c-0.2-0.1-0.2-0.2-0.3-0.5c0-0.2,0-0.4,0.1-0.6
					c0.1-0.2,0.2-0.4,0.4-0.6c-0.1,0-0.1,0-0.2-0.1c0-0.1-0.1-0.1-0.1-0.2c0-0.1,0-0.3,0.1-0.4c0-0.1,0.1-0.3,0.2-0.4
					c-0.1,0-0.2-0.1-0.3-0.2c-0.1-0.1-0.1-0.3-0.1-0.5c0-0.4,0.1-0.7,0.2-1c0.2-0.3,0.4-0.6,0.7-0.8c0.1,0,0.1-0.1,0.2-0.1
					c0.1,0,0.1-0.1,0.2-0.1L60,58z M58.3,63.2c0,0.1,0,0.2,0.1,0.2c0.1,0,0.2,0,0.3-0.1c0.2-0.2,0.4-0.3,0.5-0.5
					c0.1-0.2,0.2-0.4,0.2-0.5c0-0.1,0-0.2-0.1-0.2c-0.1,0-0.2,0.1-0.3,0.2l-0.3,0.2c-0.1,0.1-0.2,0.2-0.3,0.3
					C58.3,63,58.3,63.1,58.3,63.2z M58.5,60.3c0,0.2,0,0.3,0.1,0.4c0.1,0.1,0.1,0.1,0.3,0c0.1-0.1,0.2-0.2,0.3-0.3
					c0.1-0.1,0.1-0.3,0.1-0.5c0-0.4-0.1-0.5-0.3-0.4C58.6,59.6,58.5,59.8,58.5,60.3z"/>
				<path class="st7" d="M60.3,56.9c0-0.3,0.1-0.5,0.3-0.7c0.2-0.2,0.3-0.1,0.3,0.2c0,0.1,0,0.3-0.1,0.4c-0.1,0.1-0.1,0.2-0.2,0.3
					C60.5,57.3,60.3,57.2,60.3,56.9z M61,60.8l-0.6,0.4l0-3.5l0.6-0.4L61,60.8z"/>
				<path class="st7" d="M62.3,59.9l-0.6,0.4l0-4.8l0.6-0.4L62.3,59.9z"/>
				<path class="st7" d="M64.9,56.3c0,0.6-0.1,1.1-0.3,1.5c-0.2,0.5-0.5,0.8-0.8,1.1c-0.2,0.2-0.4,0.2-0.6,0.2
					c-0.2,0-0.3-0.1-0.4-0.4c-0.1-0.2-0.1-0.5-0.1-0.9c0-0.6,0.1-1.1,0.3-1.5c0.2-0.5,0.5-0.8,0.8-1.1c0.2-0.2,0.4-0.2,0.6-0.2
					c0.2,0,0.3,0.1,0.4,0.4C64.9,55.6,64.9,55.9,64.9,56.3z M63.4,57.4c0,0.3,0,0.6,0.1,0.7c0.1,0.1,0.2,0.1,0.4,0
					c0.2-0.1,0.3-0.3,0.4-0.5c0.1-0.2,0.1-0.5,0.1-0.9c0-0.3,0-0.6-0.1-0.7c-0.1-0.1-0.2-0.1-0.4,0c-0.2,0.1-0.3,0.3-0.4,0.5
					C63.4,56.7,63.4,57,63.4,57.4z"/>
				<path class="st7" d="M67,55.5c0,0.4-0.1,0.7-0.2,1c-0.2,0.3-0.4,0.6-0.7,0.8c-0.2,0.1-0.3,0.2-0.4,0.2c-0.1,0-0.2,0.1-0.3,0.1
					l0-0.8c0.1,0,0.2,0,0.4-0.1c0.1,0,0.3-0.1,0.4-0.2c0.2-0.2,0.3-0.3,0.3-0.5c0-0.1,0-0.1,0-0.2c0,0-0.1,0-0.2-0.1
					c-0.1,0-0.2,0-0.3,0c-0.2,0-0.3,0-0.4,0c-0.1,0-0.1-0.1-0.2-0.2c0-0.1-0.1-0.2-0.1-0.4c0-0.3,0.1-0.6,0.2-0.9
					c0.2-0.3,0.4-0.5,0.7-0.7c0.3-0.2,0.5-0.3,0.8-0.3l-0.2,0.8c-0.1,0-0.2,0-0.3,0c-0.1,0-0.2,0.1-0.3,0.1
					c-0.2,0.1-0.3,0.3-0.3,0.4c0,0.1,0,0.1,0.1,0.2c0.1,0,0.2,0,0.4,0c0.2,0,0.3,0,0.4,0c0.1,0,0.1,0.1,0.2,0.2
					C67,55.2,67,55.3,67,55.5z"/>
				<path class="st7" d="M69.5,53c0,0.6-0.1,1.1-0.3,1.5c-0.2,0.5-0.5,0.8-0.8,1.1c-0.2,0.2-0.4,0.2-0.6,0.2c-0.2,0-0.3-0.1-0.4-0.4
					c-0.1-0.2-0.1-0.5-0.1-0.9c0-0.6,0.1-1.1,0.3-1.5c0.2-0.5,0.5-0.8,0.8-1.1c0.2-0.2,0.4-0.2,0.6-0.2c0.2,0,0.3,0.1,0.4,0.4
					C69.5,52.3,69.5,52.6,69.5,53z M68,54.1c0,0.3,0,0.6,0.1,0.7c0.1,0.1,0.2,0.1,0.4,0c0.2-0.1,0.3-0.3,0.4-0.5
					c0.1-0.2,0.1-0.5,0.1-0.9c0-0.3,0-0.6-0.1-0.7c-0.1-0.1-0.2-0.1-0.4,0c-0.2,0.1-0.3,0.3-0.4,0.5C68,53.4,68,53.7,68,54.1z"/>
				<path class="st7" d="M71.6,52.2c0,0.4-0.1,0.7-0.2,1c-0.2,0.3-0.4,0.6-0.7,0.8c-0.2,0.1-0.3,0.2-0.4,0.2c-0.1,0-0.2,0.1-0.3,0.1
					l0-0.8c0.1,0,0.2,0,0.4-0.1c0.1,0,0.3-0.1,0.4-0.2c0.2-0.2,0.3-0.3,0.3-0.5c0-0.1,0-0.1,0-0.2c0,0-0.1,0-0.2-0.1
					c-0.1,0-0.2,0-0.3,0c-0.2,0-0.3,0-0.4,0c-0.1,0-0.1-0.1-0.2-0.2c0-0.1-0.1-0.2-0.1-0.4c0-0.3,0.1-0.6,0.2-0.9
					c0.2-0.3,0.4-0.5,0.7-0.7c0.3-0.2,0.5-0.3,0.8-0.3l-0.2,0.8c-0.1,0-0.2,0-0.3,0c-0.1,0-0.2,0.1-0.3,0.1
					c-0.2,0.1-0.3,0.3-0.3,0.4c0,0.1,0,0.1,0.1,0.2c0.1,0,0.2,0,0.4,0c0.2,0,0.3,0,0.4,0c0.1,0,0.1,0.1,0.2,0.2
					C71.6,51.9,71.6,52,71.6,52.2z"/>
				<path class="st7" d="M42.5,79c0,0.5-0.1,1-0.3,1.4c-0.2,0.4-0.5,0.8-0.8,1l-0.6,0.4l0-3.2l0.7-0.5c0.3-0.2,0.6-0.3,0.8-0.1
					C42.4,78.2,42.5,78.5,42.5,79z M42.2,79.2c0-0.4-0.1-0.7-0.2-0.8c-0.1-0.1-0.4-0.1-0.6,0.1L41,78.8l0,2.6l0.3-0.2
					c0.3-0.2,0.5-0.5,0.7-0.8C42.2,80,42.2,79.6,42.2,79.2z"/>
				<path class="st7" d="M43.9,79.7l0-0.3l0,0c-0.1,0.2-0.2,0.4-0.2,0.5c-0.1,0.1-0.2,0.2-0.3,0.3c-0.2,0.1-0.3,0.1-0.4,0.1
					c-0.1-0.1-0.1-0.2-0.1-0.4c0-0.5,0.3-0.9,0.8-1.3l0.3-0.2l0-0.2c0-0.2,0-0.3-0.1-0.4c-0.1-0.1-0.1,0-0.3,0
					c-0.1,0.1-0.3,0.3-0.5,0.5L43,78c0.1-0.1,0.2-0.2,0.3-0.3c0.1-0.1,0.2-0.2,0.3-0.3c0.2-0.1,0.3-0.2,0.4-0.1
					c0.1,0.1,0.1,0.2,0.1,0.5l0,1.7L43.9,79.7z M43.4,79.8c0.2-0.1,0.3-0.3,0.4-0.4c0.1-0.2,0.1-0.4,0.1-0.6l0-0.2l-0.2,0.2
					c-0.2,0.1-0.3,0.3-0.4,0.4c-0.1,0.1-0.1,0.3-0.1,0.5c0,0.1,0,0.2,0.1,0.2C43.2,79.9,43.3,79.9,43.4,79.8z"/>
				<path class="st7" d="M45.1,78.5c0,0,0.1-0.1,0.1-0.1c0,0,0.1-0.1,0.1-0.1l0,0.3c0,0-0.1,0.1-0.1,0.1c-0.1,0-0.1,0.1-0.1,0.1
					c-0.3,0.2-0.5,0.1-0.5-0.4l0-1.5l-0.2,0.2l0-0.2l0.2-0.3l0.1-0.6l0.1-0.1l0,0.6l0.5-0.3l0,0.3l-0.5,0.3l0,1.4
					c0,0.1,0,0.2,0.1,0.3C45,78.6,45.1,78.6,45.1,78.5z"/>
				<path class="st7" d="M46.7,77.7l-0.1-0.3l0,0c-0.1,0.2-0.2,0.4-0.2,0.5c-0.1,0.1-0.2,0.2-0.3,0.3c-0.2,0.1-0.3,0.1-0.4,0.1
					c-0.1-0.1-0.1-0.2-0.1-0.4c0-0.5,0.3-0.9,0.8-1.3l0.3-0.2l0-0.2c0-0.2,0-0.3-0.1-0.4c-0.1-0.1-0.1,0-0.3,0
					c-0.1,0.1-0.3,0.3-0.5,0.5l-0.1-0.2c0.1-0.1,0.2-0.2,0.3-0.3c0.1-0.1,0.2-0.2,0.3-0.3c0.2-0.1,0.3-0.2,0.4-0.1
					c0.1,0.1,0.1,0.2,0.1,0.5l0,1.7L46.7,77.7z M46.1,77.9c0.2-0.1,0.3-0.3,0.4-0.4c0.1-0.2,0.1-0.4,0.1-0.6l0-0.2l-0.2,0.2
					c-0.2,0.1-0.3,0.3-0.4,0.4c-0.1,0.1-0.1,0.3-0.1,0.5c0,0.1,0,0.2,0.1,0.2C45.9,77.9,46,77.9,46.1,77.9z"/>
				<path class="st7" d="M49.2,75.6L49.2,75.6c-0.1,0.3-0.3,0.6-0.5,0.7c-0.2,0.1-0.4,0.2-0.5,0c-0.1-0.1-0.2-0.4-0.2-0.8
					c0-0.4,0.1-0.8,0.2-1.1c0.1-0.3,0.3-0.5,0.5-0.7c0.2-0.2,0.4-0.2,0.5,0l0,0l0-0.2l0-0.2l0-1l0.2-0.2l0,3.5l-0.2,0.1L49.2,75.6z
					 M48.7,76c0.2-0.1,0.3-0.3,0.4-0.5c0.1-0.2,0.1-0.4,0.1-0.7l0-0.1c0-0.3,0-0.6-0.1-0.7c-0.1-0.1-0.2-0.1-0.4,0
					c-0.1,0.1-0.3,0.3-0.3,0.5c-0.1,0.2-0.1,0.5-0.1,0.8c0,0.3,0,0.5,0.1,0.6C48.5,76.1,48.6,76.1,48.7,76z"/>
				<path class="st7" d="M51,74.7l-0.1-0.3l0,0c-0.1,0.2-0.2,0.4-0.2,0.5c-0.1,0.1-0.2,0.2-0.3,0.3c-0.2,0.1-0.3,0.1-0.4,0.1
					c-0.1-0.1-0.1-0.2-0.1-0.4c0-0.5,0.3-0.9,0.8-1.3l0.3-0.2l0-0.2c0-0.2,0-0.3-0.1-0.4c-0.1-0.1-0.1,0-0.3,0
					c-0.1,0.1-0.3,0.3-0.5,0.5L50,73.1c0.1-0.1,0.2-0.2,0.3-0.3c0.1-0.1,0.2-0.2,0.3-0.3c0.2-0.1,0.3-0.2,0.4-0.1
					c0.1,0.1,0.1,0.2,0.1,0.5l0,1.7L51,74.7z M50.4,74.8c0.2-0.1,0.3-0.3,0.4-0.4c0.1-0.2,0.1-0.4,0.1-0.6l0-0.2l-0.2,0.2
					c-0.2,0.1-0.3,0.3-0.4,0.4c-0.1,0.1-0.1,0.3-0.1,0.5c0,0.1,0,0.2,0.1,0.3C50.3,74.9,50.3,74.9,50.4,74.8z"/>
				<path class="st7" d="M53.1,73.2c-0.2,0.2-0.4,0.2-0.5,0.1c-0.1-0.1-0.2-0.4-0.2-0.8c0-0.4,0.1-0.8,0.2-1.1
					c0.1-0.3,0.3-0.6,0.6-0.7c0.1-0.1,0.2-0.1,0.2-0.1c0.1,0,0.1,0,0.2,0l-0.1,0.4c-0.1,0-0.1,0-0.2,0c-0.1,0-0.1,0.1-0.2,0.1
					c-0.3,0.2-0.5,0.7-0.5,1.3c0,0.3,0,0.5,0.1,0.6c0.1,0.1,0.2,0.1,0.4,0c0.1-0.1,0.3-0.2,0.4-0.4l0,0.3
					C53.4,73,53.3,73.1,53.1,73.2z"/>
				<path class="st7" d="M54.6,69.6c0.1-0.1,0.1-0.1,0.2-0.1l0,0.4c-0.1,0-0.1,0.1-0.2,0.1c-0.1,0.1-0.2,0.3-0.3,0.5
					c-0.1,0.2-0.1,0.5-0.1,0.7l0,1.3l-0.2,0.2l0-2.5l0.2-0.1l0,0.4l0,0c0.1-0.2,0.1-0.4,0.2-0.5C54.4,69.8,54.5,69.7,54.6,69.6z"/>
				<path class="st7" d="M55.1,68.6c0-0.1,0-0.2,0-0.2c0-0.1,0.1-0.1,0.1-0.1c0,0,0.1,0,0.1,0c0,0,0,0.1,0,0.2c0,0.1,0,0.2,0,0.2
					c0,0.1-0.1,0.1-0.1,0.1c0,0-0.1,0-0.1,0C55.1,68.8,55.1,68.7,55.1,68.6z M55.4,71.6l-0.2,0.2l0-2.5l0.2-0.2L55.4,71.6z"/>
				<path class="st7" d="M56.9,70.5l-0.1-0.3l0,0c-0.1,0.2-0.2,0.4-0.2,0.5c-0.1,0.1-0.2,0.2-0.3,0.3c-0.2,0.1-0.3,0.1-0.4,0.1
					c-0.1-0.1-0.1-0.2-0.1-0.4c0-0.5,0.3-0.9,0.8-1.3l0.3-0.2l0-0.2c0-0.2,0-0.3-0.1-0.4c-0.1-0.1-0.1,0-0.3,0
					c-0.1,0.1-0.3,0.3-0.5,0.5l-0.1-0.2c0.1-0.1,0.2-0.2,0.3-0.3c0.1-0.1,0.2-0.2,0.3-0.3c0.2-0.1,0.3-0.2,0.4-0.1
					c0.1,0.1,0.1,0.2,0.1,0.5l0,1.7L56.9,70.5z M56.3,70.7c0.2-0.1,0.3-0.3,0.4-0.4c0.1-0.2,0.1-0.4,0.1-0.6l0-0.2l-0.2,0.2
					c-0.2,0.1-0.3,0.3-0.4,0.4c-0.1,0.1-0.1,0.3-0.1,0.5c0,0.1,0,0.2,0.1,0.3C56.1,70.7,56.2,70.7,56.3,70.7z"/>
				<path class="st7" d="M58.2,69.6c-0.2,0.2-0.4,0.2-0.5,0.1c-0.1-0.1-0.2-0.4-0.2-0.8c0-0.4,0.1-0.8,0.2-1.1
					c0.1-0.3,0.3-0.6,0.6-0.7c0.1-0.1,0.2-0.1,0.2-0.1c0.1,0,0.1,0,0.2,0l-0.1,0.4c-0.1,0-0.1,0-0.2,0c-0.1,0-0.1,0.1-0.2,0.1
					c-0.3,0.2-0.5,0.7-0.5,1.3c0,0.3,0,0.5,0.1,0.6c0.1,0.1,0.2,0.1,0.4,0c0.1-0.1,0.3-0.2,0.4-0.4l0,0.3
					C58.5,69.4,58.4,69.5,58.2,69.6z M58.4,70.1c0,0.1,0,0.3-0.1,0.4c-0.1,0.1-0.2,0.3-0.3,0.4c-0.1,0-0.1,0.1-0.1,0.1l0-0.2
					c0,0,0.1,0,0.2-0.1c0.1-0.1,0.1-0.1,0.2-0.2c0-0.1,0.1-0.1,0.1-0.2c0-0.1,0-0.1-0.1-0.1c0,0-0.1,0-0.2,0.1l0.1-0.5l0.2-0.1
					l-0.1,0.3C58.3,69.8,58.4,69.9,58.4,70.1z"/>
				<path class="st7" d="M60,68.3L59.9,68l0,0c-0.1,0.2-0.2,0.4-0.2,0.5c-0.1,0.1-0.2,0.2-0.3,0.3c-0.2,0.1-0.3,0.1-0.4,0.1
					c-0.1-0.1-0.1-0.2-0.1-0.4c0-0.5,0.3-0.9,0.8-1.3l0.3-0.2l0-0.2c0-0.2,0-0.3-0.1-0.4c-0.1-0.1-0.1,0-0.3,0
					c-0.1,0.1-0.3,0.3-0.5,0.5L59,66.7c0.1-0.1,0.2-0.2,0.3-0.3c0.1-0.1,0.2-0.2,0.3-0.3c0.2-0.1,0.3-0.2,0.4-0.1
					c0.1,0.1,0.1,0.2,0.1,0.5l0,1.7L60,68.3z M59.8,65.6c0,0-0.1,0-0.1,0c0,0-0.1,0-0.1,0c0,0-0.1,0-0.1,0c0,0-0.1,0-0.1,0
					c0,0-0.1,0.1-0.1,0.1c0,0.1,0,0.1-0.1,0.2L59,66.2c0-0.2,0-0.4,0.1-0.5c0.1-0.1,0.1-0.2,0.2-0.3c0,0,0.1,0,0.1-0.1
					c0,0,0.1,0,0.1,0c0,0,0.1,0,0.1,0c0,0,0.1,0,0.1,0c0,0,0.1-0.1,0.1-0.1c0-0.1,0-0.1,0.1-0.2l0.1-0.1c0,0.2,0,0.4-0.1,0.5
					C59.9,65.5,59.9,65.6,59.8,65.6z M59.4,68.5c0.2-0.1,0.3-0.3,0.4-0.4c0.1-0.2,0.1-0.4,0.1-0.6l0-0.2l-0.2,0.2
					c-0.2,0.1-0.3,0.3-0.4,0.4c-0.1,0.1-0.1,0.3-0.1,0.5c0,0.1,0,0.2,0.1,0.3C59.3,68.5,59.3,68.5,59.4,68.5z"/>
				<path class="st7" d="M62.1,65.6c0,0.4-0.1,0.8-0.2,1.1c-0.1,0.3-0.3,0.6-0.5,0.7c-0.1,0.1-0.3,0.1-0.4,0.1
					c-0.1,0-0.2-0.1-0.3-0.3c-0.1-0.2-0.1-0.4-0.1-0.6c0-0.4,0.1-0.8,0.2-1.1c0.1-0.3,0.3-0.6,0.5-0.7c0.2-0.2,0.4-0.2,0.5,0
					C62,65,62.1,65.2,62.1,65.6z M60.8,66.5c0,0.3,0,0.5,0.1,0.6c0.1,0.1,0.2,0.1,0.4,0s0.3-0.3,0.4-0.5c0.1-0.2,0.1-0.5,0.1-0.8
					c0-0.3,0-0.5-0.1-0.6c-0.1-0.1-0.2-0.1-0.4,0c-0.2,0.1-0.3,0.3-0.4,0.5C60.9,65.9,60.8,66.2,60.8,66.5z"/>
				<path class="st7" d="M62.4,64.3c0-0.2,0.1-0.3,0.2-0.4c0.1-0.1,0.2,0,0.2,0.2c0,0.1,0,0.2,0,0.3c0,0.1-0.1,0.1-0.1,0.2
					c-0.1,0-0.1,0-0.1,0C62.5,64.5,62.4,64.4,62.4,64.3z M62.5,66.3c0-0.1,0-0.2,0-0.3c0-0.1,0.1-0.1,0.1-0.2c0.1,0,0.1,0,0.1,0
					c0,0,0,0.1,0,0.2c0,0.1,0,0.2,0,0.3c0,0.1-0.1,0.1-0.1,0.2c-0.1,0-0.1,0-0.1,0C62.5,66.5,62.5,66.5,62.5,66.3z"/>
				<path class="st7" d="M64.9,64.9L64.6,65l0-2.4c0-0.2,0-0.4,0-0.6c0,0,0,0.1-0.1,0.1c0,0.1-0.1,0.3-0.3,0.7l-0.1-0.2l0.6-1.1
					l0.2-0.1L64.9,64.9z"/>
				<path class="st7" d="M66.4,60.4c0.2-0.1,0.4-0.2,0.5-0.1c0.1,0.1,0.2,0.2,0.2,0.5c0,0.2,0,0.3-0.1,0.5c-0.1,0.2-0.2,0.4-0.3,0.6
					c0.2,0,0.3,0.1,0.4,0.1c0.1,0.1,0.1,0.2,0.1,0.4c0,0.3-0.1,0.5-0.2,0.8c-0.1,0.3-0.3,0.5-0.5,0.6C66.2,64,66,64,65.9,64
					c-0.1-0.1-0.2-0.2-0.2-0.5c0-0.4,0.1-0.8,0.4-1.2c-0.1,0-0.2-0.1-0.3-0.2c-0.1-0.1-0.1-0.2-0.1-0.4c0-0.2,0.1-0.5,0.2-0.7
					C66,60.7,66.2,60.5,66.4,60.4z M65.9,63.3c0,0.2,0,0.3,0.1,0.3c0.1,0,0.2,0,0.3-0.1c0.1-0.1,0.3-0.2,0.3-0.4
					c0.1-0.2,0.1-0.3,0.1-0.5c0-0.1,0-0.3-0.1-0.3c-0.1-0.1-0.2-0.1-0.4-0.1c-0.1,0.2-0.3,0.4-0.3,0.5C66,63,65.9,63.1,65.9,63.3z
					 M66.4,60.7c-0.1,0.1-0.2,0.2-0.3,0.3C66,61.2,66,61.3,66,61.5c0,0.1,0,0.2,0.1,0.3c0.1,0.1,0.2,0.1,0.3,0.1
					c0.1-0.2,0.2-0.4,0.3-0.5c0.1-0.1,0.1-0.3,0.1-0.4c0-0.2,0-0.3-0.1-0.3C66.6,60.6,66.5,60.6,66.4,60.7z"/>
				<path class="st7" d="M68.3,59.1L67.5,63l-0.2,0.2l0.8-3.9L68.3,59.1z"/>
				<path class="st7" d="M69.9,59.6c0,0.6-0.1,1.1-0.2,1.4c-0.1,0.4-0.3,0.6-0.5,0.8C69,62,68.8,62,68.7,61.8
					c-0.1-0.2-0.2-0.6-0.2-1.2c0-0.6,0.1-1.1,0.2-1.4c0.1-0.4,0.3-0.6,0.5-0.8c0.2-0.2,0.4-0.1,0.5,0.1
					C69.9,58.7,69.9,59.1,69.9,59.6z M68.8,60.4c0,0.5,0,0.8,0.1,1c0.1,0.2,0.2,0.2,0.4,0.1c0.2-0.1,0.3-0.3,0.4-0.6
					c0.1-0.3,0.1-0.7,0.1-1.1c0-0.5,0-0.8-0.1-1c-0.1-0.2-0.2-0.2-0.4-0.1c-0.2,0.1-0.3,0.3-0.3,0.6C68.8,59.6,68.8,60,68.8,60.4z"
					/>
				<path class="st7" d="M70.9,57.2c0.2-0.1,0.4-0.2,0.5-0.1c0.1,0.1,0.2,0.2,0.2,0.5c0,0.2,0,0.3-0.1,0.5c-0.1,0.2-0.2,0.4-0.3,0.6
					c0.2,0,0.3,0.1,0.4,0.1c0.1,0.1,0.1,0.2,0.1,0.4c0,0.3-0.1,0.5-0.2,0.8c-0.1,0.3-0.3,0.5-0.5,0.6c-0.2,0.2-0.4,0.2-0.5,0.1
					c-0.1-0.1-0.2-0.2-0.2-0.5c0-0.4,0.1-0.8,0.4-1.2c-0.1,0-0.2-0.1-0.3-0.2c-0.1-0.1-0.1-0.2-0.1-0.4c0-0.2,0.1-0.5,0.2-0.7
					C70.6,57.5,70.7,57.3,70.9,57.2z M70.5,60.1c0,0.2,0,0.3,0.1,0.3c0.1,0,0.2,0,0.3-0.1c0.1-0.1,0.3-0.2,0.3-0.4
					c0.1-0.2,0.1-0.3,0.1-0.5c0-0.1,0-0.3-0.1-0.3C71.2,59,71.1,59,70.9,59c-0.1,0.2-0.3,0.4-0.3,0.5C70.5,59.7,70.5,59.9,70.5,60.1
					z M70.9,57.5c-0.1,0.1-0.2,0.2-0.3,0.3c-0.1,0.1-0.1,0.3-0.1,0.4c0,0.1,0,0.2,0.1,0.3c0.1,0.1,0.2,0.1,0.3,0.1
					c0.1-0.2,0.2-0.4,0.3-0.5c0.1-0.1,0.1-0.3,0.1-0.4c0-0.2,0-0.3-0.1-0.3C71.2,57.4,71.1,57.4,70.9,57.5z"/>
				<path class="st7" d="M72.9,55.8l-0.8,3.9L71.9,60l0.8-3.9L72.9,55.8z"/>
				<path class="st7" d="M74.5,58.1l-1.4,1l0-0.3l0.6-1.3c0.2-0.4,0.3-0.7,0.3-0.8c0.1-0.2,0.1-0.3,0.1-0.4c0-0.1,0-0.3,0-0.4
					c0-0.2,0-0.3-0.1-0.4c-0.1-0.1-0.2,0-0.3,0c-0.1,0.1-0.2,0.1-0.3,0.2c-0.1,0.1-0.2,0.2-0.3,0.4L73.1,56c0.2-0.4,0.4-0.7,0.6-0.8
					c0.2-0.1,0.4-0.2,0.5-0.1c0.1,0.1,0.2,0.3,0.2,0.5c0,0.2,0,0.5-0.1,0.7c-0.1,0.3-0.2,0.6-0.4,1.1l-0.5,1.1l0,0l1.1-0.8
					L74.5,58.1z"/>
				<path class="st7" d="M76.2,55.2c0,0.6-0.1,1.1-0.2,1.4c-0.1,0.4-0.3,0.6-0.5,0.8c-0.2,0.2-0.4,0.1-0.5-0.1
					c-0.1-0.2-0.2-0.6-0.2-1.2c0-0.6,0.1-1.1,0.2-1.4c0.1-0.4,0.3-0.6,0.5-0.8c0.2-0.2,0.4-0.1,0.5,0.1
					C76.1,54.2,76.2,54.6,76.2,55.2z M75,56c0,0.5,0,0.8,0.1,1c0.1,0.2,0.2,0.2,0.4,0.1c0.2-0.1,0.3-0.3,0.4-0.6
					c0.1-0.3,0.1-0.7,0.1-1.1s0-0.8-0.1-1c-0.1-0.2-0.2-0.2-0.4-0.1c-0.2,0.1-0.3,0.3-0.3,0.6C75.1,55.1,75,55.5,75,56z"/>
				<path class="st7" d="M77.4,56l-0.2,0.2l0-2.4c0-0.2,0-0.4,0-0.6c0,0,0,0.1-0.1,0.2c0,0.1-0.1,0.3-0.3,0.7l-0.1-0.2l0.6-1.1
					l0.2-0.1L77.4,56z"/>
				<path class="st7" d="M79.7,54.4l-1.4,1l0-0.3l0.6-1.3c0.2-0.4,0.3-0.7,0.3-0.8c0.1-0.2,0.1-0.3,0.1-0.4c0-0.1,0-0.3,0-0.4
					c0-0.2,0-0.3-0.1-0.4c-0.1-0.1-0.2,0-0.3,0c-0.1,0.1-0.2,0.1-0.3,0.2c-0.1,0.1-0.2,0.3-0.3,0.4l-0.1-0.2
					c0.2-0.4,0.4-0.7,0.6-0.8c0.2-0.1,0.4-0.2,0.5-0.1c0.1,0.1,0.2,0.3,0.2,0.5c0,0.2,0,0.5-0.1,0.7c-0.1,0.3-0.2,0.6-0.4,1.1
					l-0.5,1.1l0,0l1.1-0.8L79.7,54.4z"/>
				<path class="st7" d="M82.2,51c0,0.6-0.1,1.1-0.2,1.4c-0.1,0.4-0.3,0.6-0.5,0.8c-0.2,0.2-0.4,0.1-0.5-0.1
					c-0.1-0.2-0.2-0.6-0.2-1.2c0-0.6,0.1-1.1,0.2-1.4c0.1-0.4,0.3-0.6,0.5-0.8c0.2-0.2,0.4-0.1,0.5,0.1C82.1,50,82.2,50.4,82.2,51z
					 M81,51.8c0,0.5,0,0.8,0.1,1c0.1,0.2,0.2,0.2,0.4,0.1c0.2-0.1,0.3-0.3,0.4-0.6c0.1-0.3,0.1-0.7,0.1-1.2s0-0.8-0.1-1
					c-0.1-0.2-0.2-0.2-0.4-0.1c-0.2,0.1-0.3,0.3-0.3,0.6C81,50.9,81,51.3,81,51.8z"/>
				<path class="st7" d="M83.2,48.5c0.2-0.1,0.4-0.2,0.5-0.1c0.1,0.1,0.2,0.2,0.2,0.5c0,0.2,0,0.3-0.1,0.5c-0.1,0.2-0.2,0.4-0.3,0.6
					c0.2,0,0.3,0.1,0.4,0.2c0.1,0.1,0.1,0.2,0.1,0.4c0,0.3-0.1,0.6-0.2,0.8c-0.1,0.3-0.3,0.5-0.5,0.6c-0.2,0.2-0.4,0.2-0.5,0.1
					c-0.1-0.1-0.2-0.3-0.2-0.5c0-0.4,0.1-0.8,0.4-1.2c-0.1,0-0.2-0.1-0.3-0.2c-0.1-0.1-0.1-0.2-0.1-0.4c0-0.2,0.1-0.5,0.2-0.7
					C82.8,48.8,83,48.6,83.2,48.5z M82.7,51.4c0,0.2,0,0.3,0.1,0.3c0.1,0,0.2,0,0.3-0.1c0.1-0.1,0.3-0.2,0.3-0.4
					c0.1-0.2,0.1-0.3,0.1-0.5c0-0.2,0-0.3-0.1-0.3c-0.1-0.1-0.2-0.1-0.4-0.1c-0.1,0.2-0.3,0.4-0.3,0.6
					C82.8,51.1,82.7,51.3,82.7,51.4z M83.2,48.8c-0.1,0.1-0.2,0.2-0.3,0.3c-0.1,0.1-0.1,0.3-0.1,0.4c0,0.1,0,0.2,0.1,0.3
					C82.9,50,83,50,83.2,50c0.1-0.2,0.2-0.4,0.3-0.5c0.1-0.1,0.1-0.3,0.1-0.4c0-0.2,0-0.3-0.1-0.3C83.4,48.7,83.3,48.7,83.2,48.8z"
					/>
				<path class="st7" d="M84.3,48.9c0-0.2,0.1-0.4,0.2-0.4c0.1-0.1,0.2,0,0.2,0.2c0,0.1,0,0.2,0,0.3c0,0.1-0.1,0.1-0.1,0.2
					c-0.1,0-0.1,0-0.1,0C84.3,49.1,84.3,49,84.3,48.9z M84.3,50.9c0-0.1,0-0.2,0-0.3c0-0.1,0.1-0.1,0.1-0.2c0.1,0,0.1,0,0.1,0
					c0,0,0,0.1,0,0.2c0,0.1,0,0.2,0,0.3c0,0.1-0.1,0.1-0.1,0.2c-0.1,0-0.1,0-0.1,0C84.3,51.1,84.3,51,84.3,50.9z"/>
				<path class="st7" d="M86.5,48.8L86.2,49l0,0.8L86,50l0-0.8l-1,0.7l0-0.3l1-3l0.3-0.2l0,2.3l0.3-0.2L86.5,48.8z M86,48.9l0-1.1
					c0-0.2,0-0.5,0-0.8l0,0c0,0.2-0.1,0.3-0.1,0.5l-0.7,2L86,48.9z"/>
				<path class="st7" d="M87.4,46.9c0.2-0.2,0.4-0.2,0.5-0.1c0.1,0.1,0.2,0.3,0.2,0.6c0,0.4-0.1,0.7-0.2,1c-0.1,0.3-0.3,0.5-0.6,0.7
					c-0.2,0.2-0.4,0.2-0.6,0.2l0-0.4c0.1,0,0.2,0,0.3,0c0.1,0,0.2-0.1,0.3-0.2c0.2-0.1,0.3-0.3,0.4-0.5c0.1-0.2,0.1-0.4,0.1-0.7
					c0-0.5-0.2-0.6-0.6-0.3c-0.1,0.1-0.2,0.2-0.4,0.3l-0.1,0l0.1-1.7l1.1-0.8l0,0.4l-0.9,0.6l0,1.1C87.2,47.1,87.3,47,87.4,46.9z"/>
			</g>
		</g>
	</g>
	<path class="st9" d="M33.2,72.2l-9.8,6.5l5.3,3.6l5.2-2v-7C33.8,73.3,34.3,72.6,33.2,72.2z"/>
	<polygon class="st10" points="35.5,78.7 35.5,95.7 31.9,97.3 28.7,84 28.7,81.5 	"/>
	<polygon class="st11" points="32.6,83.5 32.6,100 26.8,100.8 27.1,84.1 	"/>
	<polygon class="st12" points="28.7,80.9 23.4,78.7 22.2,79.2 22.9,100.5 27.7,104.8 27.5,98.1 28.7,95.7 	"/>
	<path class="st13" d="M16.2,99.4V110c0,0.9,0.8,1.7,1.7,1.7c1.9,0,5-0.8,6.1-5.2l1.7-14.4L16.2,99.4z"/>
	<path class="st14" d="M20.6,103.9c0,0,0.4-2.4,1.1-2.2v0.2v0.6l0.8-0.4V101h-0.3c0,0-0.5-0.8-1.2,0.2c-0.8,1-1,2.6-1,2.6H20.6z"/>
	<path class="st14" d="M20.6,106.6c0,0-1,0.1-0.7-0.7l0.3-0.3v-0.9l-1.1,0.4l0.2,0.6c0,0-0.9,2.4,1.3,1.7V106.6z"/>
	<path class="st14" d="M22.5,102.7l-0.3,1.1h0.3c0,0-0.1,2.7-1.6,2.3l0.3,0.9c0,0,1.8-0.2,1.9-3.2h0.2l-0.5-1.6L22.5,102.7z"/>
	<ellipse transform="matrix(0.7713 -0.6365 0.6365 0.7713 -56.0324 35.138)" class="st15" cx="20.9" cy="95.5" rx="6.1" ry="1.7"/>
	<path class="st16" d="M16.6,99.6c1,0.1,3.2-1,5.3-2.8s3.6-3.7,3.7-4.7c-1-0.1-3.2,1-5.3,2.8C18.2,96.7,16.7,98.6,16.6,99.6z"/>
</g>
<g>
	<path class="st17" d="M92.5,3.8c0.6,0,1.2,0.5,1.2,1.2l0.6,60.7c0,1.8-0.9,3.5-2.3,4.5l-80.3,57.4c-0.3,0.2-0.6,0.3-0.9,0.3
		c-0.8,0-1.6-0.7-1.6-1.6V68.5c0-2.3,1.1-4.4,2.9-5.8L91.8,4C92,3.9,92.3,3.8,92.5,3.8 M92.5,1.8C92.5,1.8,92.5,1.8,92.5,1.8
		c-0.7,0-1.3,0.2-1.9,0.6L10.9,61.1c-2.3,1.7-3.7,4.5-3.7,7.4v57.7c0,2,1.6,3.6,3.6,3.6c0.7,0,1.5-0.2,2.1-0.7l80.3-57.4
		c2-1.4,3.2-3.7,3.2-6.1L95.7,4.9C95.7,3.2,94.2,1.8,92.5,1.8L92.5,1.8z"/>
</g>
</svg>
