<?xml version="1.0" encoding="utf-8"?>
<!-- Generator: Adobe Illustrator 22.1.0, SVG Export Plug-In . SVG Version: 6.00 Build 0)  -->
<svg version="1.1" id="Camada_7" xmlns="http://www.w3.org/2000/svg" xmlns:xlink="http://www.w3.org/1999/xlink" x="0px" y="0px"
	 viewBox="0 0 71.1 34.3" style="enable-background:new 0 0 71.1 34.3;" xml:space="preserve">
<style type="text/css">
	.st0{fill:#C2C1C1;}
	.st1{fill:#3C3C3B;}
	.st2{fill:#FFFFFF;}
	.st3{fill:#DADADA;}
	.st4{fill:#848484;}
	.st5{fill:#B6D7A0;}
	.st6{fill:#E83B4B;}
	.st7{fill:#8FB9D6;}
	.st8{fill:#F0F0F0;}
	.st9{fill:#F6F6F6;}
	.st10{fill:#15AADC;}
	.st11{fill:#9D9D9C;}
	.st12{fill:#D33138;}
	.st13{fill:#FBD11B;}
	.st14{fill:#B2B2B2;}
	.st15{fill:#FBE170;}
	.st16{fill:#C6C6C6;}
	.st17{fill:#706F6F;}
	.st18{fill:#3873B9;}
	.st19{fill:#142933;}
	.st20{fill:#627789;}
	.st21{fill:#344451;}
	.st22{fill:#030405;}
	.st23{fill:#9EC865;}
	.st24{fill:#E7E6E6;}
	.st25{fill:#2D63A1;}
	.st26{fill:#575756;}
	.st27{fill:none;stroke:#E83B4A;stroke-width:2;stroke-linecap:round;stroke-linejoin:round;stroke-miterlimit:10;}
	.st28{fill:#878787;}
	.st29{clip-path:url(#SVGID_2_);}
	.st30{fill:#DDE5E6;}
	.st31{fill:#C4D1D6;}
	.st32{fill:#E83B4A;}
	.st33{fill:#131B2F;}
	.st34{fill:#356087;}
	.st35{fill:#ADD2DB;}
	.st36{fill:#114D5B;}
	.st37{fill:#95C11F;}
	.st38{fill:#F2AD18;}
</style>
<g>
	<polygon class="st6" points="2,9.9 2,12.5 2,33.4 69.1,33.4 69.1,13.1 31.6,12.4 31.5,8.7 	"/>
	<g>
		<g>
			<path class="st6" d="M5.3,2.3c0.7,0,1.3,0.1,1.9,0.4L6.9,3.4C6.3,3.2,5.8,3.1,5.3,3.1c-0.4,0-0.8,0.1-1,0.3S3.9,3.8,3.9,4.1
				c0,0.2,0,0.4,0.1,0.6C4.1,4.8,4.3,5,4.5,5.1c0.2,0.1,0.5,0.3,1,0.4C6.2,5.8,6.7,6,6.9,6.3C7.2,6.6,7.3,7,7.3,7.5
				c0,0.6-0.2,1.1-0.7,1.4c-0.4,0.3-1,0.5-1.8,0.5C4.1,9.4,3.5,9.3,3,9.1V8.3c0.3,0.1,0.6,0.2,0.9,0.3c0.3,0.1,0.7,0.1,1,0.1
				c0.5,0,0.9-0.1,1.2-0.3c0.3-0.2,0.4-0.5,0.4-0.8c0-0.2,0-0.4-0.1-0.6C6.3,6.8,6.1,6.7,5.9,6.5c-0.2-0.1-0.6-0.3-1-0.4
				C4.2,5.9,3.8,5.6,3.5,5.3C3.2,5,3.1,4.6,3.1,4.1c0-0.5,0.2-0.9,0.6-1.3C4.1,2.5,4.6,2.3,5.3,2.3 M5.3,0.3c-1.1,0-2.1,0.3-2.8,0.9
				C1.6,1.9,1.1,2.9,1.1,4.1c0,1,0.3,1.8,0.9,2.5c0,0-0.1,0-0.1,0C1.4,7,1,7.6,1,8.3v0.8c0,0.8,0.4,1.5,1.1,1.8
				c0.7,0.3,1.6,0.5,2.7,0.5c1.2,0,2.2-0.3,3-0.9c0.9-0.7,1.4-1.8,1.4-3c0-1-0.3-1.8-0.9-2.5c0,0-0.1-0.1-0.1-0.1
				c0.2-0.2,0.4-0.5,0.5-0.8L9,3.4c0.4-1-0.1-2.1-1.1-2.5C7.1,0.5,6.2,0.3,5.3,0.3L5.3,0.3z"/>
		</g>
		<g>
			<path class="st6" d="M10.6,4.1c0.6,0,1.2,0.2,1.5,0.6c0.4,0.4,0.6,1,0.6,1.7v0.5H9.1c0,0.6,0.2,1.1,0.5,1.4s0.7,0.5,1.2,0.5
				c0.6,0,1.1-0.1,1.6-0.3V9c-0.3,0.1-0.5,0.2-0.8,0.3c-0.2,0.1-0.5,0.1-0.9,0.1C10,9.4,9.4,9.1,9,8.7S8.3,7.6,8.3,6.8
				c0-0.8,0.2-1.5,0.6-2C9.3,4.3,9.9,4.1,10.6,4.1 M9.1,6.2h2.7c0-0.5-0.1-0.9-0.3-1.1c-0.2-0.3-0.5-0.4-0.9-0.4
				c-0.4,0-0.7,0.1-1,0.4C9.3,5.4,9.2,5.8,9.1,6.2 M10.6,2.1c-1.3,0-2.4,0.5-3.2,1.4C6.7,4.4,6.3,5.5,6.3,6.8c0,1.3,0.4,2.5,1.2,3.3
				c0.6,0.6,1.6,1.3,3.2,1.3c0.5,0,0.9,0,1.3-0.1c0.4-0.1,0.8-0.2,1.2-0.4c0.7-0.3,1.2-1,1.2-1.8V8.4c0-0.2,0-0.3-0.1-0.5
				c0.2-0.3,0.3-0.6,0.3-1V6.4c0-1.5-0.6-2.5-1.1-3C12.8,2.5,11.8,2.1,10.6,2.1L10.6,2.1z"/>
		</g>
		<g>
			<path class="st6" d="M16.4,4.1c0.6,0,1.1,0.1,1.4,0.4c0.3,0.3,0.5,0.8,0.5,1.4v3.3h-0.8V6c0-0.4-0.1-0.7-0.3-0.9
				c-0.2-0.2-0.5-0.3-0.9-0.3c-0.5,0-0.9,0.1-1.2,0.4c-0.2,0.3-0.4,0.8-0.4,1.4v2.7H14V4.2h0.6l0.1,0.7h0c0.2-0.3,0.4-0.4,0.7-0.6
				C15.7,4.1,16.1,4.1,16.4,4.1 M16.4,2.1c-0.4,0-0.8,0.1-1.2,0.2c-0.2-0.1-0.4-0.1-0.6-0.1H14c-1.1,0-2,0.9-2,2v5.1
				c0,1.1,0.9,2,2,2h0.8c0.5,0,1-0.2,1.4-0.5c0.4,0.3,0.8,0.5,1.4,0.5h0.8c1.1,0,2-0.9,2-2V5.9c0-1.2-0.4-2.2-1.1-2.9
				C18.5,2.4,17.6,2.1,16.4,2.1L16.4,2.1z"/>
		</g>
		<g>
			<path class="st6" d="M20.7,2v2.2c0,0.3,0,0.5,0,0.7h0c0.2-0.2,0.4-0.4,0.7-0.6c0.3-0.1,0.6-0.2,1-0.2c0.6,0,1.1,0.1,1.4,0.4
				s0.5,0.8,0.5,1.4v3.3h-0.8V6c0-0.4-0.1-0.7-0.3-0.9c-0.2-0.2-0.5-0.3-0.9-0.3c-0.5,0-0.9,0.1-1.2,0.4c-0.2,0.3-0.4,0.8-0.4,1.4
				v2.7h-0.8V2H20.7 M20.7,0h-0.8c-1.1,0-2,0.9-2,2v7.3c0,1.1,0.9,2,2,2h0.8c0.5,0,1-0.2,1.4-0.5c0.4,0.3,0.8,0.5,1.4,0.5h0.8
				c1.1,0,2-0.9,2-2V5.9c0-1.2-0.4-2.2-1.1-2.9c-0.6-0.6-1.4-0.9-2.4-1V2C22.7,0.9,21.8,0,20.7,0L20.7,0z"/>
		</g>
		<g>
			<path class="st6" d="M27.7,4.1c0.6,0,1.1,0.1,1.4,0.4c0.3,0.3,0.4,0.7,0.4,1.3v3.5h-0.6l-0.2-0.7h0c-0.3,0.3-0.5,0.5-0.8,0.7
				c-0.3,0.1-0.6,0.2-1,0.2c-0.5,0-0.9-0.1-1.2-0.4c-0.3-0.3-0.4-0.6-0.4-1.1c0-1,0.8-1.6,2.5-1.6l0.9,0V5.9c0-0.4-0.1-0.7-0.3-0.9
				c-0.2-0.2-0.5-0.3-0.8-0.3c-0.4,0-0.9,0.1-1.5,0.4L26,4.5c0.3-0.1,0.5-0.2,0.8-0.3C27.1,4.1,27.4,4.1,27.7,4.1 M27.2,8.7
				c0.5,0,0.9-0.1,1.1-0.4s0.4-0.6,0.4-1.1V6.8l-0.8,0c-0.6,0-1.1,0.1-1.3,0.3s-0.4,0.4-0.4,0.8c0,0.3,0.1,0.5,0.3,0.6
				C26.6,8.7,26.9,8.7,27.2,8.7 M27.7,2.1c-0.5,0-0.9,0.1-1.4,0.2c-0.5,0.1-0.9,0.3-1.3,0.5c-0.9,0.5-1.3,1.6-0.9,2.5l0.1,0.3
				c-0.8,0.8-0.8,1.8-0.8,2.3c0,1.3,0.6,2.1,1.1,2.6c0.5,0.4,1.3,0.9,2.5,0.9c0.5,0,0.9-0.1,1.3-0.2c0.2,0.1,0.4,0.1,0.6,0.1h0.6
				c1.1,0,2-0.9,2-2V5.8c0-1.5-0.6-2.3-1.1-2.8C29.7,2.4,28.8,2.1,27.7,2.1L27.7,2.1z"/>
		</g>
		<g>
			<path class="st6" d="M9.5,18v9.5H8.4v-6.8c0-0.6,0-1.1,0.1-1.6c-0.1,0.1-0.2,0.2-0.3,0.3c-0.1,0.1-0.6,0.5-1.5,1.3L6,19.9L8.6,18
				H9.5 M9.5,16H8.6c-0.4,0-0.9,0.1-1.2,0.4l-2.5,1.9c-0.9,0.7-1,1.9-0.4,2.8L5,21.9c0.3,0.4,0.8,0.7,1.4,0.8c0,0,0,0,0,0v4.8
				c0,1.1,0.9,2,2,2h1.1c1.1,0,2-0.9,2-2V18C11.5,16.9,10.6,16,9.5,16L9.5,16z"/>
		</g>
		<g>
			<path class="st6" d="M17.4,17.9c0.9,0,1.6,0.2,2.1,0.7c0.5,0.5,0.8,1.1,0.8,1.8c0,0.6-0.2,1.2-0.5,1.8c-0.3,0.6-1,1.3-1.9,2.2
				l-2.1,2v0.1h4.9v1h-6.3v-0.9l2.5-2.5c0.8-0.8,1.3-1.3,1.5-1.7c0.2-0.3,0.4-0.7,0.5-1c0.1-0.3,0.2-0.6,0.2-1
				c0-0.5-0.2-0.9-0.5-1.2c-0.3-0.3-0.7-0.4-1.3-0.4c-0.4,0-0.8,0.1-1.1,0.2c-0.4,0.1-0.7,0.4-1.2,0.7l-0.6-0.7
				C15.4,18.2,16.4,17.9,17.4,17.9 M17.4,15.9c-1.5,0-2.9,0.5-4.1,1.6c-0.8,0.7-1,1.9-0.3,2.8l0.6,0.7c0.3,0.4,0.8,0.7,1.3,0.8
				c0.1,0,0.2,0,0.2,0c0.4,0,0.9-0.2,1.2-0.4c0.4-0.3,0.6-0.4,0.6-0.4c0,0,0.1,0,0.1,0c0,0.1-0.1,0.2-0.2,0.4
				c-0.1,0.1-0.4,0.5-1.3,1.4L13,25.2c-0.4,0.4-0.6,0.9-0.6,1.4v0.9c0,1.1,0.9,2,2,2h6.3c1.1,0,2-0.9,2-2v-1c0-1.1-0.9-2-2-2h-0.1
				c0.4-0.5,0.7-0.9,1-1.3c0.5-0.9,0.8-1.8,0.8-2.8c0-1.3-0.5-2.5-1.4-3.3C20,16.3,18.8,15.9,17.4,15.9L17.4,15.9z"/>
		</g>
		<g>
			<path class="st6" d="M26.3,17.9c0.9,0,1.6,0.2,2.2,0.6c0.5,0.4,0.8,1,0.8,1.7c0,0.6-0.2,1.1-0.5,1.5c-0.3,0.4-0.8,0.6-1.4,0.8
				v0.1c0.8,0.1,1.3,0.3,1.7,0.7c0.4,0.4,0.6,0.9,0.6,1.5c0,0.9-0.3,1.6-0.9,2.1c-0.6,0.5-1.5,0.7-2.7,0.7c-0.5,0-1,0-1.4-0.1
				c-0.4-0.1-0.8-0.2-1.2-0.4v-1c0.4,0.2,0.9,0.4,1.3,0.5c0.5,0.1,0.9,0.2,1.3,0.2c1.6,0,2.5-0.6,2.5-1.9c0-1.2-0.9-1.7-2.7-1.7
				h-0.9v-0.9h0.9c0.7,0,1.3-0.2,1.8-0.5c0.4-0.3,0.7-0.8,0.7-1.4c0-0.5-0.2-0.8-0.5-1.1c-0.3-0.3-0.8-0.4-1.3-0.4
				c-0.4,0-0.8,0.1-1.2,0.2c-0.4,0.1-0.8,0.3-1.3,0.6l-0.5-0.7c0.4-0.3,0.8-0.5,1.3-0.7C25.2,17.9,25.8,17.9,26.3,17.9 M26.3,15.9
				c-0.8,0-1.5,0.1-2.3,0.4c-0.7,0.2-1.4,0.6-1.9,1c-0.9,0.7-1,1.9-0.4,2.8l0.5,0.7c0.2,0.2,0.4,0.4,0.6,0.5
				c-0.1,0.2-0.2,0.5-0.2,0.8v0.9c0,0.4,0.1,0.7,0.3,1.1c-0.3,0-0.6,0.1-0.8,0.3c-0.6,0.4-0.9,1-0.9,1.7v1c0,0.8,0.4,1.5,1.1,1.8
				c0.6,0.3,1.1,0.5,1.7,0.6c0.5,0.1,1.1,0.1,1.7,0.1c1.6,0,2.9-0.4,3.9-1.2c0.8-0.6,1.7-1.7,1.7-3.7c0-1-0.3-1.8-0.8-2.5
				c0.3-0.6,0.5-1.3,0.5-2.1c0-1.3-0.5-2.5-1.5-3.3C28.9,16.2,27.7,15.9,26.3,15.9L26.3,15.9z"/>
		</g>
		<g>
			<path class="st6" d="M37.6,17.9v6.4H39v1h-1.4v2.2h-1v-2.2H32v-0.9l4.5-6.4H37.6 M33,24.3h3.5v-3.2c0-0.6,0-1.3,0.1-2.1h-0.1
				c-0.2,0.4-0.4,0.8-0.6,1L33,24.3 M37.6,15.9h-1.1c-0.7,0-1.3,0.3-1.6,0.9l-4.5,6.4C30.1,23.6,30,24,30,24.4v0.9c0,1.1,0.9,2,2,2
				h2.6v0.2c0,1.1,0.9,2,2,2h1c1.1,0,2-0.9,2-2v-0.3c0.8-0.3,1.4-1,1.4-1.9v-1c0-0.9-0.6-1.7-1.4-1.9v-4.5
				C39.6,16.8,38.7,15.9,37.6,15.9L37.6,15.9z"/>
		</g>
		<g>
			<path class="st6" d="M69.1,13.6v18.8H2V13.6H69.1 M2.4,31.9h46.5V14H2.4V31.9 M69.1,11.6H2c-1.1,0-2,0.9-2,2v18.8
				c0,1.1,0.9,2,2,2h67.1c1.1,0,2-0.9,2-2V13.6C71.1,12.5,70.2,11.6,69.1,11.6L69.1,11.6z M4.4,16h42.5v14H4.4V16L4.4,16z"/>
		</g>
	</g>
	<g>
		<g>
			<g>
				<path class="st33" d="M7.3,7.5c0,0.6-0.2,1.1-0.7,1.4c-0.4,0.3-1,0.5-1.8,0.5C4.1,9.4,3.5,9.3,3,9.1V8.3
					c0.3,0.1,0.6,0.2,0.9,0.3s0.7,0.1,1,0.1c0.5,0,0.9-0.1,1.2-0.3c0.3-0.2,0.4-0.5,0.4-0.8c0-0.2,0-0.4-0.1-0.6
					C6.3,6.8,6.1,6.7,5.9,6.5s-0.6-0.3-1-0.4C4.2,5.9,3.8,5.6,3.5,5.3C3.2,5,3.1,4.6,3.1,4.1c0-0.5,0.2-0.9,0.6-1.3s0.9-0.5,1.6-0.5
					c0.7,0,1.3,0.1,1.9,0.4L6.9,3.4C6.3,3.2,5.8,3.1,5.3,3.1c-0.4,0-0.8,0.1-1,0.3C4,3.5,3.9,3.8,3.9,4.1c0,0.2,0,0.4,0.1,0.6
					C4.1,4.8,4.3,5,4.5,5.1c0.2,0.1,0.5,0.3,1,0.4C6.2,5.8,6.7,6,6.9,6.3C7.2,6.6,7.3,7,7.3,7.5z"/>
			</g>
		</g>
		<g>
			<g>
				<path class="st33" d="M10.8,9.4C10,9.4,9.4,9.1,9,8.7S8.3,7.6,8.3,6.8c0-0.8,0.2-1.5,0.6-2s1-0.7,1.6-0.7c0.6,0,1.2,0.2,1.5,0.6
					s0.6,1,0.6,1.7v0.5H9.1c0,0.6,0.2,1.1,0.5,1.4s0.7,0.5,1.2,0.5c0.6,0,1.1-0.1,1.6-0.3V9c-0.3,0.1-0.5,0.2-0.8,0.3
					C11.4,9.4,11.1,9.4,10.8,9.4z M10.6,4.7c-0.4,0-0.7,0.1-1,0.4C9.3,5.4,9.2,5.8,9.1,6.2h2.7c0-0.5-0.1-0.9-0.3-1.1
					C11.3,4.8,11,4.7,10.6,4.7z"/>
			</g>
		</g>
		<g>
			<g>
				<path class="st33" d="M17.5,9.3V6c0-0.4-0.1-0.7-0.3-0.9c-0.2-0.2-0.5-0.3-0.9-0.3c-0.5,0-0.9,0.1-1.2,0.4
					c-0.2,0.3-0.4,0.8-0.4,1.4v2.7H14V4.2h0.6l0.1,0.7h0c0.2-0.3,0.4-0.4,0.7-0.6c0.3-0.1,0.6-0.2,1-0.2c0.6,0,1.1,0.1,1.4,0.4
					s0.5,0.8,0.5,1.4v3.3H17.5z"/>
			</g>
		</g>
		<g>
			<g>
				<path class="st33" d="M23.4,9.3V6c0-0.4-0.1-0.7-0.3-0.9c-0.2-0.2-0.5-0.3-0.9-0.3c-0.5,0-0.9,0.1-1.2,0.4
					c-0.2,0.3-0.4,0.8-0.4,1.4v2.7h-0.8V2h0.8v2.2c0,0.3,0,0.5,0,0.7h0c0.2-0.2,0.4-0.4,0.7-0.6c0.3-0.1,0.6-0.2,1-0.2
					c0.6,0,1.1,0.1,1.4,0.4s0.5,0.8,0.5,1.4v3.3H23.4z"/>
			</g>
		</g>
		<g>
			<g>
				<path class="st33" d="M28.9,9.3l-0.2-0.7h0c-0.3,0.3-0.5,0.5-0.8,0.7c-0.3,0.1-0.6,0.2-1,0.2c-0.5,0-0.9-0.1-1.2-0.4
					c-0.3-0.3-0.4-0.6-0.4-1.1c0-1,0.8-1.6,2.5-1.6l0.9,0V5.9c0-0.4-0.1-0.7-0.3-0.9c-0.2-0.2-0.5-0.3-0.8-0.3
					c-0.4,0-0.9,0.1-1.5,0.4L26,4.5c0.3-0.1,0.5-0.2,0.8-0.3c0.3-0.1,0.6-0.1,0.9-0.1c0.6,0,1.1,0.1,1.4,0.4s0.4,0.7,0.4,1.3v3.5
					H28.9z M27.2,8.7c0.5,0,0.9-0.1,1.1-0.4c0.3-0.3,0.4-0.6,0.4-1.1V6.8l-0.8,0c-0.6,0-1.1,0.1-1.3,0.3c-0.3,0.2-0.4,0.4-0.4,0.8
					c0,0.3,0.1,0.5,0.3,0.6C26.6,8.7,26.9,8.7,27.2,8.7z"/>
			</g>
		</g>
	</g>
	<g>
		<g>
			<g>
				<path class="st33" d="M9.5,27.5H8.4v-6.8c0-0.6,0-1.1,0.1-1.6c-0.1,0.1-0.2,0.2-0.3,0.3c-0.1,0.1-0.6,0.5-1.5,1.3L6,19.9L8.6,18
					h0.9V27.5z"/>
			</g>
		</g>
		<g>
			<g>
				<path class="st33" d="M20.7,27.5h-6.3v-0.9l2.5-2.5c0.8-0.8,1.3-1.3,1.5-1.7c0.2-0.3,0.4-0.7,0.5-1c0.1-0.3,0.2-0.6,0.2-1
					c0-0.5-0.2-0.9-0.5-1.2c-0.3-0.3-0.7-0.4-1.3-0.4c-0.4,0-0.8,0.1-1.1,0.2c-0.4,0.1-0.7,0.4-1.2,0.7l-0.6-0.7
					c0.9-0.7,1.8-1.1,2.9-1.1c0.9,0,1.6,0.2,2.1,0.7c0.5,0.5,0.8,1.1,0.8,1.8c0,0.6-0.2,1.2-0.5,1.8c-0.3,0.6-1,1.3-1.9,2.2l-2.1,2
					v0.1h4.9V27.5z"/>
			</g>
		</g>
		<g>
			<g>
				<path class="st33" d="M29.3,20.2c0,0.6-0.2,1.1-0.5,1.5c-0.3,0.4-0.8,0.6-1.4,0.8v0.1c0.8,0.1,1.3,0.3,1.7,0.7
					c0.4,0.4,0.6,0.9,0.6,1.5c0,0.9-0.3,1.6-0.9,2.1c-0.6,0.5-1.5,0.7-2.7,0.7c-0.5,0-1,0-1.4-0.1c-0.4-0.1-0.8-0.2-1.2-0.4v-1
					c0.4,0.2,0.9,0.4,1.3,0.5c0.5,0.1,0.9,0.2,1.3,0.2c1.6,0,2.5-0.6,2.5-1.9c0-1.2-0.9-1.7-2.7-1.7h-0.9v-0.9h0.9
					c0.7,0,1.3-0.2,1.8-0.5c0.4-0.3,0.7-0.8,0.7-1.4c0-0.5-0.2-0.8-0.5-1.1c-0.3-0.3-0.8-0.4-1.3-0.4c-0.4,0-0.8,0.1-1.2,0.2
					c-0.4,0.1-0.8,0.3-1.3,0.6l-0.5-0.7c0.4-0.3,0.8-0.5,1.3-0.7c0.5-0.2,1-0.3,1.6-0.3c0.9,0,1.6,0.2,2.2,0.6
					C29,18.9,29.3,19.5,29.3,20.2z"/>
			</g>
		</g>
		<g>
			<g>
				<path class="st33" d="M39,25.3h-1.4v2.2h-1v-2.2H32v-0.9l4.5-6.4h1.1v6.4H39V25.3z M36.6,24.3v-3.2c0-0.6,0-1.3,0.1-2.1h-0.1
					c-0.2,0.4-0.4,0.8-0.6,1l-3,4.2H36.6z"/>
			</g>
		</g>
	</g>
	<g>
		<g>
			<rect x="48.9" y="13.8" class="st34" width="20" height="18.4"/>
		</g>
	</g>
	<g>
		<g>
			<path class="st2" d="M59.7,27.8c-0.1,0-0.2,0-0.2-0.1c-0.2-0.1-0.2-0.4-0.1-0.6l3.1-4l-3.6-3.4c-0.2-0.2-0.2-0.4,0-0.6
				c0.2-0.2,0.4-0.2,0.6,0l4.1,3.9l-3.5,4.5C60,27.8,59.9,27.8,59.7,27.8z"/>
		</g>
	</g>
	<g>
		<g>
			<path class="st2" d="M62.5,23.9h-7.8c-0.2,0-0.4-0.2-0.4-0.4c0-0.2,0.2-0.4,0.4-0.4h7.8c0.2,0,0.4,0.2,0.4,0.4
				C62.9,23.7,62.7,23.9,62.5,23.9z"/>
		</g>
	</g>
	<g>
		<g>
			<path class="st35" d="M69.1,32.3H2V13.6h67.1V32.3z M2.4,31.9h66.3V14H2.4V31.9z"/>
		</g>
	</g>
</g>
</svg>
